<svg width="26" height="24" viewBox="0 0 26 24" fill="none" xmlns="http://www.w3.org/2000/svg">
<path fill-rule="evenodd" clip-rule="evenodd" d="M23.0833 8.57765L23.948 9.44197C24.6325 10.1142 25.0048 11.0266 25.0048 11.9869C25.0168 12.9473 24.6445 13.8608 23.972 14.5439C23.964 14.5527 23.956 14.5604 23.948 14.5681C23.944 14.572 23.94 14.5759 23.936 14.5799L23.0833 15.4322C22.7471 15.7683 22.555 16.2245 22.555 16.7059V17.9411C22.555 19.9339 20.9338 21.5557 18.9403 21.5557H17.7034C17.223 21.5557 16.7667 21.7466 16.4305 22.0827L15.5658 22.947C14.8573 23.6565 13.9326 24.0034 13.0079 24.0034C12.0833 24.0034 11.1586 23.6565 10.4501 22.9602L9.57342 22.0827C9.23717 21.7466 8.78084 21.5557 8.30048 21.5557H7.06357C5.07011 21.5557 3.44892 19.9339 3.44892 17.9411V16.7059C3.44892 16.2245 3.25677 15.7683 2.92053 15.4202L2.05589 14.5679C0.650859 13.1646 0.63885 10.8705 2.04388 9.45518L2.92053 8.57765C3.25677 8.24153 3.44892 7.78536 3.44892 7.29317V6.06872C3.44892 4.07597 5.07011 2.45657 7.06357 2.45657H8.30048C8.78084 2.45657 9.23717 2.2633 9.57342 1.92717L10.4381 1.06285C11.8431 -0.352478 14.1368 -0.352477 15.5538 1.05205L16.4305 1.92717C16.7667 2.2633 17.223 2.45657 17.7034 2.45657H18.9403C20.9338 2.45657 22.555 4.07597 22.555 6.06872V7.30638C22.555 7.78536 22.7471 8.24153 23.0833 8.57765ZM9.90888 16.1404C10.1971 16.1404 10.4613 16.0324 10.6534 15.8283L16.826 9.65923C17.2343 9.25107 17.2343 8.57762 16.826 8.16947C16.4177 7.76252 15.7572 7.76252 15.3489 8.16947L9.17634 14.3398C8.76804 14.7479 8.76804 15.4202 9.17634 15.8283C9.36848 16.0324 9.63268 16.1404 9.90888 16.1404ZM15.0363 15.084C15.0363 15.6723 15.5047 16.1404 16.0931 16.1404C16.6695 16.1404 17.1378 15.6723 17.1378 15.084C17.1378 14.509 16.6695 14.0396 16.0931 14.0396C15.5047 14.0396 15.0363 14.509 15.0363 15.084ZM9.92103 7.86938C10.4975 7.86938 10.9658 8.33756 10.9658 8.91377C10.9658 9.50319 10.4975 9.97017 9.92103 9.97017C9.34461 9.97017 8.86426 9.50319 8.86426 8.91377C8.86426 8.33756 9.34461 7.86938 9.92103 7.86938Z" fill="#403C44"/>
</svg>
