<svg width="24" height="24" viewBox="0 0 24 24" fill="none" xmlns="http://www.w3.org/2000/svg">
<path fill-rule="evenodd" clip-rule="evenodd" d="M6.86378 1H17.1363C20.8773 1 22.9892 3.12183 23.0002 6.8628V17.1365C23.0002 20.8763 20.8773 22.9993 17.1363 22.9993H6.86378C3.12281 22.9993 1.00098 20.8763 1.00098 17.1365V6.8628C1.00098 3.12183 3.12281 1 6.86378 1ZM12.0546 18.4454C12.5287 18.4454 12.9236 18.0934 12.9676 17.6204V6.4118C13.0116 6.07082 12.8477 5.72873 12.5507 5.54283C12.2416 5.35584 11.8676 5.35584 11.5717 5.54283C11.2736 5.72873 11.1097 6.07082 11.1416 6.4118V17.6204C11.1977 18.0934 11.5926 18.4454 12.0546 18.4454ZM17.1153 18.4454C17.5773 18.4454 17.9722 18.0934 18.0283 17.6204V14.0125C18.0602 13.6595 17.8963 13.3306 17.5982 13.1436C17.3023 12.9566 16.9283 12.9566 16.6204 13.1436C16.3223 13.3306 16.1584 13.6595 16.2024 14.0125V17.6204C16.2464 18.0934 16.6413 18.4454 17.1153 18.4454ZM7.84172 17.6205C7.79772 18.0934 7.40283 18.4454 6.92875 18.4454C6.45577 18.4454 6.05978 18.0934 6.01688 17.6205V10.0197C5.98388 9.67763 6.14778 9.33774 6.44587 9.15074C6.74176 8.96375 7.11684 8.96375 7.41383 9.15074C7.70972 9.33774 7.87582 9.67763 7.84172 10.0197V17.6205Z" fill="#403C44"/>
</svg>
