<svg width="40" height="40" viewBox="0 0 40 40" fill="none" xmlns="http://www.w3.org/2000/svg">
<g opacity="0.85" clip-path="url(#clip0_2000_1302)">
<path d="M37.2724 32.7273H30.9089C26.8988 32.7273 23.6363 29.4648 23.6363 25.4548C23.6363 21.4447 26.8988 18.1822 30.9089 18.1822H37.2724C37.7749 18.1822 38.1815 17.7756 38.1815 17.2731V14.5458C38.1815 12.6395 36.7029 11.0892 34.8346 10.9388L29.6137 1.81965C29.1298 0.976257 28.3486 0.373454 27.4137 0.123146C26.4833 -0.125458 25.5104 0.00510802 24.6777 0.489788L6.77996 10.9095H3.63658C1.63113 10.9095 0.000244141 12.5403 0.000244141 14.5458V36.3637C0.000244141 38.3691 1.63104 40 3.63658 40H34.5452C36.5506 40 38.1815 38.3692 38.1815 36.3637V33.6364C38.1815 33.1339 37.7749 32.7273 37.2724 32.7273ZM30.7411 7.44967L32.722 10.9095H24.7984L30.7411 7.44967ZM10.3935 10.9095L25.5929 2.0611C26.0039 1.8205 26.4842 1.75659 26.9432 1.87914C27.4075 2.0034 27.7946 2.30348 28.0352 2.72339L28.0371 2.72671L13.9825 10.9095H10.3935Z" fill="white"/>
<path d="M37.2724 20H30.9088C27.901 20 25.4543 22.4467 25.4543 25.4545C25.4543 28.4622 27.901 30.9089 30.9088 30.9089H37.2724C38.7763 30.9089 39.9996 29.6856 39.9996 28.1817V22.7272C39.9996 21.2233 38.7763 20 37.2724 20ZM30.9088 27.2726C29.9065 27.2726 29.0907 26.4567 29.0907 25.4545C29.0907 24.4522 29.9065 23.6363 30.9088 23.6363C31.9111 23.6363 32.7269 24.4522 32.7269 25.4545C32.727 26.4567 31.9111 27.2726 30.9088 27.2726Z" fill="white"/>
</g>
<defs>
<clipPath id="clip0_2000_1302">
<rect width="40" height="40" fill="white"/>
</clipPath>
</defs>
</svg>
