<svg width="40" height="40" viewBox="0 0 40 40" fill="none" xmlns="http://www.w3.org/2000/svg">
<g opacity="0.85">
<path d="M21.0938 18.75H28.125V17.5781C28.125 12.4963 25.1617 8.10484 20.8789 6.00688C22.4214 4.95031 23.4375 3.17844 23.4375 1.17188V0H7.03125V1.17188C7.03125 3.17844 8.04734 4.95031 9.58984 6.00688C5.30703 8.10484 2.34375 12.4963 2.34375 17.5781V25.9815C0.979609 26.4656 0 27.7691 0 29.2969V31.6406C0 33.5792 1.57703 35.1562 3.51562 35.1562H22.5815C21.6245 33.2671 21.0938 31.1427 21.0938 28.9215V18.75ZM18.75 16.4062H15.2344C14.5878 16.4062 14.0625 16.9316 14.0625 17.5781C14.0625 18.2247 14.5878 18.75 15.2344 18.75C17.173 18.75 18.75 20.327 18.75 22.2656C18.75 23.7914 17.7673 25.08 16.4062 25.5654V28.125H14.0625V25.7812H11.7188V23.4375H15.2344C15.8809 23.4375 16.4062 22.9122 16.4062 22.2656C16.4062 21.6191 15.8809 21.0938 15.2344 21.0938C13.2958 21.0938 11.7188 19.5167 11.7188 17.5781C11.7188 16.0523 12.7014 14.7638 14.0625 14.2784V11.7188H16.4062V14.0625H18.75V16.4062Z" fill="white"/>
<path d="M23.5938 21.0938V28.9215C23.5938 33.9204 26.8569 38.3533 31.4261 39.8764L31.798 40L32.1688 39.8752C36.8529 38.3052 40 33.8482 40 28.9215V21.0938H23.5938ZM30.625 33.2977L27.4527 30.1255L29.1098 28.4684L30.625 29.9835L34.484 26.1245L36.1411 27.7816L30.625 33.2977Z" fill="white"/>
</g>
</svg>
