<svg width="40" height="40" viewBox="0 0 40 40" fill="none" xmlns="http://www.w3.org/2000/svg">
<g opacity="0.85" clip-path="url(#clip0_2000_1324)">
<path d="M16.4683 13.7677C17.1016 13.991 17.7541 13.66 17.9709 13.0673C18.1898 12.4621 17.8839 11.789 17.2705 11.5647C16.6442 11.3414 15.9863 11.6677 15.7679 12.2651C15.5489 12.8703 15.8549 13.5432 16.4683 13.7677Z" fill="white"/>
<path d="M20.6295 17.2104C24.651 17.1016 28.6014 15.6643 31.7543 13.1626C32.1574 12.8433 32.6335 12.6577 33.1275 12.5384L33.5899 11.2686C33.7627 10.7948 33.6128 10.2638 33.2168 9.95024C29.2766 6.82368 24.3362 5.02586 19.3065 4.88735C14.9075 4.76719 10.7257 3.22649 7.21246 0.5818L6.78675 0.252191C6.49261 0.0198474 6.10472 -0.0579651 5.74074 0.0439099C5.37792 0.146879 5.0873 0.416957 4.9591 0.770629L0.0709717 14.0632C-0.101841 14.537 0.0480811 15.068 0.442925 15.3816C3.20785 17.575 6.54511 19.097 9.97785 19.8688C13.2877 18.246 16.9325 17.312 20.6295 17.2104ZM22.3753 14.6702C22.5967 14.0619 23.2692 13.7484 23.8773 13.9696C24.4856 14.191 24.7991 14.8635 24.5777 15.4716C24.3564 16.0799 23.6839 16.3934 23.0757 16.172C22.4675 15.9508 22.1539 15.2783 22.3753 14.6702ZM13.5662 11.4643C14.2288 9.64352 16.2533 8.70055 18.0718 9.36313C19.8936 10.0257 20.8367 12.0479 20.1729 13.8687C19.511 15.6893 17.4875 16.6345 15.6674 15.9698C13.8439 15.3052 12.8994 13.2938 13.5662 11.4643ZM9.16089 9.86055C9.38222 9.25227 10.0546 8.93875 10.6629 9.16016C11.2711 9.38149 11.5846 10.0539 11.3633 10.662C11.1419 11.2703 10.4694 11.5838 9.86128 11.3624C9.25308 11.1411 8.93949 10.4687 9.16089 9.86055Z" fill="white"/>
<path d="M11.2201 39.2278C11.3483 39.5826 11.6401 39.8527 12.0017 39.9546C12.3742 40.0599 12.7614 39.9742 13.05 39.7451C16.5966 36.931 21.0426 35.2347 25.5676 35.1111C30.5973 34.9727 35.6158 33.1748 39.5571 30.0482C39.952 29.7346 40.1019 29.2036 39.9291 28.7299L35.041 15.5154C34.9128 15.1607 34.621 14.8906 34.2594 14.7887C33.8955 14.6857 33.5075 14.7635 33.2111 14.9982C29.6646 17.8123 25.2185 19.4304 20.6935 19.5529C15.665 19.6914 10.7246 21.4892 6.78323 24.6169C6.38729 24.9305 6.23737 25.4615 6.41018 25.9353L11.2201 39.2278ZM29.3371 23.8262C29.9454 23.6049 30.6178 23.9185 30.8392 24.5266C31.0606 25.1349 30.7471 25.8073 30.1388 26.0286C29.5307 26.2499 28.8582 25.9364 28.6367 25.3282C28.4154 24.7199 28.729 24.0476 29.3371 23.8262ZM21.9284 24.0286C23.7503 23.366 25.7724 24.309 26.4339 26.1298C27.0977 27.9506 26.1547 29.9727 24.3328 30.6353C22.5174 31.2968 20.4966 30.3707 19.8272 28.5342C19.1635 26.7134 20.1064 24.6912 21.9284 24.0286ZM16.1228 28.6359C16.7309 28.4146 17.4034 28.7281 17.6248 29.3363C17.8461 29.9446 17.5325 30.617 16.9244 30.8383C16.3161 31.0596 15.6437 30.746 15.4224 30.1379C15.201 29.5296 15.5146 28.8571 16.1228 28.6359Z" fill="white"/>
<path d="M23.5317 28.4337C24.1458 28.2091 24.4508 27.5357 24.2321 26.9312C24.0136 26.334 23.3561 26.0073 22.7295 26.2308C22.1154 26.4554 21.8104 27.1287 22.0291 27.7333C22.2494 28.3356 22.9159 28.658 23.5317 28.4337Z" fill="white"/>
</g>
<defs>
<clipPath id="clip0_2000_1324">
<rect width="40" height="40" fill="white"/>
</clipPath>
</defs>
</svg>
