<svg width="26" height="26" viewBox="0 0 26 26" fill="none" xmlns="http://www.w3.org/2000/svg">
<path d="M25.4355 11.8344C25.9473 11.3356 26.128 10.6036 25.9072 9.92318C25.686 9.24272 25.1096 8.75698 24.4016 8.6539L18.1062 7.73916C17.8381 7.70011 17.6064 7.53195 17.4866 7.28882L14.6721 1.58433C14.3561 0.943444 13.7147 0.545166 12.9999 0.545166C12.2856 0.545166 11.6442 0.943444 11.3282 1.58433L8.51315 7.28882C8.3934 7.53195 8.16121 7.70011 7.89308 7.73916L1.59769 8.65442C0.89016 8.75698 0.313829 9.24272 0.0925632 9.92318C-0.128182 10.6036 0.0524751 11.3356 0.564249 11.8344L5.11919 16.2743C5.31339 16.4638 5.40241 16.7366 5.3566 17.0032L4.28151 23.273C4.16072 23.9774 4.44447 24.6756 5.02288 25.0963C5.60077 25.5175 6.35308 25.5721 6.98668 25.2384L12.6167 22.2781C12.8567 22.1521 13.1431 22.1521 13.3831 22.2781L19.0136 25.2384C19.2885 25.3831 19.5863 25.4545 19.8826 25.4545C20.2673 25.4545 20.6505 25.3342 20.9774 25.0963C21.5558 24.6756 21.8396 23.9774 21.7188 23.273L20.6432 17.0037C20.5974 16.7366 20.6864 16.4643 20.8806 16.2748L25.4355 11.8344ZM19.6176 17.1796L20.6926 23.449C20.7468 23.7645 20.6244 24.066 20.3652 24.2544C20.1054 24.4424 19.7821 24.4653 19.4983 24.3174L13.8678 21.3566C13.5965 21.2145 13.2977 21.1426 12.9999 21.1426C12.7021 21.1426 12.4038 21.2145 12.132 21.3571L6.50249 24.3174C6.21771 24.4653 5.89441 24.4424 5.63513 24.2544C5.37586 24.066 5.25404 23.765 5.30766 23.449L6.38275 17.1796C6.48636 16.5747 6.28591 15.9572 5.84651 15.5293L1.29104 11.0889C1.06145 10.865 0.983352 10.5495 1.08279 10.2449C1.18171 9.93984 1.43005 9.73055 1.74711 9.68421L8.04198 8.76947C8.64955 8.68149 9.17486 8.30039 9.44611 7.74957L12.2611 2.04509C12.4027 1.7577 12.6792 1.58642 12.9994 1.58642C13.3201 1.58642 13.596 1.7577 13.7381 2.04509L16.5532 7.74957C16.8244 8.30039 17.3492 8.68149 17.9568 8.76947L24.2522 9.68421C24.5692 9.73055 24.8176 9.93984 24.9165 10.2449C25.0154 10.5495 24.9378 10.865 24.7082 11.0889L20.1533 15.5287C19.7139 15.9572 19.5134 16.5742 19.6176 17.1796Z" fill="white"/>
</svg>
