<svg width="26" height="26" viewBox="0 0 26 26" fill="none" xmlns="http://www.w3.org/2000/svg">
<g clip-path="url(#clip0_974_2462)">
<path d="M12.985 3.78547e-10C12.5189 3.78547e-10 12.0532 0.0250561 11.5898 0.0750057C11.1651 0.118393 10.7456 0.189548 10.3317 0.275889C10.2516 0.292647 10.1714 0.310327 10.0913 0.328821C7.65283 0.884069 5.42618 2.13096 3.67843 3.91998C3.51591 4.08659 3.3568 4.25813 3.20122 4.43456C-1.51997 9.85514 -0.953383 18.077 4.46676 22.7986C9.65584 27.319 17.4667 27.0182 22.2929 22.1123C22.4557 21.9456 22.6148 21.7741 22.7701 21.5977C24.8536 19.2247 26.0018 16.1741 26 13.0161C26 5.82745 20.173 -5.42337e-05 12.985 3.78547e-10ZM4.25673 4.57079C4.32528 4.49964 4.39643 4.43152 4.46627 4.36253C4.54697 4.28313 4.62723 4.2033 4.70965 4.12651C4.7821 4.05882 4.85672 3.99374 4.93091 3.92779C5.01464 3.8536 5.09793 3.77941 5.18383 3.70782C5.25932 3.64404 5.33698 3.58286 5.4142 3.52125C5.50096 3.45183 5.58773 3.38242 5.6771 3.3156C5.75606 3.25616 5.83632 3.19845 5.91701 3.14205C6.00681 3.07784 6.09705 3.01189 6.18859 2.95201C6.27058 2.89648 6.35345 2.84268 6.43674 2.78931C6.52958 2.72987 6.62286 2.6713 6.717 2.61576C6.80176 2.56516 6.88706 2.51538 6.97296 2.46651C7.069 2.41184 7.16542 2.35848 7.26233 2.30641C7.34909 2.26015 7.43586 2.21486 7.52262 2.17061C7.62154 2.12071 7.72132 2.07255 7.82154 2.02526C7.9083 1.98404 7.99854 1.94283 8.08791 1.90378C8.18986 1.86039 8.29311 1.817 8.39636 1.77362C8.48617 1.73674 8.57554 1.70073 8.66621 1.66602C8.7712 1.6261 8.87749 1.58879 8.98377 1.55147C9.07444 1.5198 9.16512 1.48813 9.25709 1.45819C9.36511 1.42348 9.474 1.39137 9.58333 1.3597C9.67487 1.33324 9.76554 1.3059 9.85751 1.28117C9.89265 1.27206 9.92779 1.26468 9.96293 1.25557C8.67879 2.50258 7.72582 4.0502 7.19031 5.7583C6.16061 5.4867 5.16377 5.10304 4.21769 4.61418C4.232 4.59899 4.24415 4.58381 4.25673 4.57079ZM3.63288 5.26933C4.675 5.83401 5.78008 6.27385 6.92524 6.57962C6.36386 8.53183 6.06918 10.551 6.04933 12.5822H0.847674C0.942195 9.90368 1.92163 7.33201 3.63288 5.26933ZM3.63288 20.7629C1.92174 18.7002 0.942304 16.1285 0.847674 13.45H6.04933C6.06918 15.4812 6.3638 17.5004 6.92524 19.4526C5.78014 19.7585 4.67506 20.1983 3.63288 20.7629ZM9.85491 24.7528C9.76728 24.7307 9.67661 24.702 9.58637 24.6756C9.47661 24.6435 9.36641 24.6114 9.25796 24.5762C9.16642 24.5467 9.07618 24.515 8.98594 24.4834C8.87922 24.4465 8.7725 24.4087 8.66708 24.3684C8.57684 24.3341 8.4879 24.2981 8.39853 24.2617C8.29485 24.2183 8.19116 24.1749 8.08834 24.1315C7.99984 24.0924 7.91177 24.0523 7.82414 24.0109C7.72306 23.9632 7.62241 23.9146 7.52046 23.8642C7.43369 23.8208 7.34692 23.7775 7.26016 23.7302C7.16211 23.6777 7.06493 23.6239 6.96775 23.5683C6.88099 23.5202 6.79856 23.4707 6.71483 23.4204C6.61939 23.3631 6.52568 23.3041 6.43197 23.2438C6.34954 23.1913 6.26711 23.1379 6.18599 23.0833C6.09358 23.0208 6.00204 22.9557 5.91137 22.8906C5.83198 22.8338 5.75259 22.7769 5.6745 22.7171C5.58469 22.6494 5.49663 22.5795 5.40899 22.5092C5.3322 22.4481 5.25585 22.3873 5.1808 22.3244C5.09403 22.2524 5.0103 22.1773 4.92614 22.1027C4.85238 22.0372 4.7782 21.9725 4.70618 21.9057C4.62332 21.8285 4.54306 21.7482 4.46237 21.6688C4.39252 21.5998 4.32137 21.5317 4.25283 21.461C4.24025 21.4476 4.2281 21.4337 4.21552 21.4207C5.16154 20.9316 6.15838 20.5478 7.18814 20.2761C7.72376 21.9842 8.67667 23.5317 9.96077 24.7788C9.92563 24.7697 9.89005 24.7623 9.85491 24.7528ZM12.5512 25.1303C10.6948 24.8665 9.0675 22.9288 8.04366 20.0674C9.5239 19.7359 11.0344 19.5581 12.5512 19.5368V25.1303ZM12.5512 18.669C10.9422 18.6902 9.34 18.8813 7.77121 19.2392C7.22648 17.3568 6.93912 15.4094 6.917 13.45H12.5512V18.669ZM12.5512 12.5822H6.917C6.93907 10.6228 7.22643 8.67539 7.77121 6.79309C9.34 7.15087 10.9423 7.34199 12.5512 7.36319V12.5822ZM12.5512 6.49545C11.0344 6.4743 9.5239 6.29646 8.04366 5.96482C9.0675 3.10343 10.6948 1.16576 12.5512 0.901967V6.49545ZM22.3371 5.26933C24.0483 7.33206 25.0277 9.90373 25.1224 12.5822H19.9207C19.9009 10.551 19.6062 8.53183 19.0448 6.57962C20.1899 6.27369 21.295 5.8339 22.3371 5.26933ZM16.1116 1.279C16.2028 1.30156 16.2934 1.3302 16.3837 1.35666C16.4934 1.38877 16.6036 1.42088 16.7121 1.45602C16.8036 1.48552 16.8938 1.5172 16.9841 1.54887C17.0908 1.58575 17.1975 1.6235 17.303 1.66385C17.3932 1.69812 17.4821 1.73413 17.5715 1.77058C17.6752 1.81397 17.7789 1.85735 17.8817 1.90074C17.9702 1.93979 18.0583 1.97998 18.1459 2.02136C18.247 2.06908 18.3476 2.11768 18.4496 2.16801C18.5363 2.21139 18.6231 2.25478 18.7099 2.30207C18.8079 2.35457 18.9051 2.40837 19.0023 2.46391C19.089 2.51207 19.1715 2.56153 19.2552 2.61186C19.3506 2.66913 19.4444 2.72814 19.5381 2.78844C19.6205 2.84094 19.7029 2.89431 19.784 2.94898C19.8764 3.01145 19.9676 3.0761 20.0582 3.14118C20.1381 3.19802 20.2174 3.25529 20.296 3.31473C20.3853 3.38198 20.473 3.45183 20.561 3.52212C20.6374 3.58286 20.7142 3.64361 20.7892 3.70695C20.876 3.77897 20.9597 3.85403 21.0439 3.92866C21.1176 3.99417 21.1918 4.05882 21.2638 4.12564C21.3467 4.20287 21.427 4.28313 21.5077 4.36253C21.5775 4.43152 21.6487 4.49964 21.7172 4.57036C21.7298 4.58381 21.7419 4.59769 21.7545 4.61071C20.8085 5.09979 19.8116 5.4836 18.7819 5.75526C18.2452 4.047 17.2911 2.49954 16.0058 1.25297C16.0409 1.26208 16.0765 1.26946 16.1116 1.279ZM13.4188 0.901967C15.2752 1.16576 16.9025 3.10343 17.9264 5.96482C16.4461 6.2963 14.9356 6.47414 13.4188 6.49545V0.901967ZM13.4188 7.36319C15.0278 7.34204 16.63 7.15092 18.1988 6.79309C18.7435 8.67539 19.0309 10.6228 19.053 12.5822H13.4188V7.36319ZM13.4188 13.45H19.053C19.031 15.4094 18.7436 17.3568 18.1988 19.2392C16.63 18.8814 15.0278 18.6902 13.4188 18.669V13.45ZM13.4188 25.1303V19.5368C14.9356 19.5579 16.4461 19.7358 17.9264 20.0674C16.9025 22.9288 15.2752 24.8665 13.4188 25.1303ZM21.7133 21.4614C21.6448 21.5322 21.574 21.6003 21.5042 21.6693C21.4235 21.7487 21.3428 21.8289 21.2599 21.9062C21.1879 21.9734 21.1137 22.0363 21.04 22.1036C20.9558 22.1782 20.8721 22.2528 20.7862 22.3249C20.7103 22.3882 20.6331 22.4494 20.5558 22.511C20.4691 22.5804 20.3823 22.6498 20.2929 22.7166C20.214 22.7761 20.1337 22.8338 20.053 22.8902C19.9632 22.9544 19.873 23.0203 19.7814 23.0802C19.6994 23.1358 19.6166 23.1896 19.5333 23.2425C19.4404 23.3024 19.3469 23.3602 19.2526 23.416C19.1658 23.4668 19.083 23.5163 18.9975 23.5653C18.9015 23.62 18.8049 23.6733 18.7077 23.7254C18.6209 23.7717 18.5342 23.8169 18.4474 23.8612C18.3485 23.9111 18.2487 23.9592 18.1485 24.0065C18.0617 24.0478 17.9715 24.089 17.8821 24.128C17.7802 24.1714 17.6769 24.2148 17.5737 24.2582C17.4839 24.2946 17.3945 24.3311 17.3043 24.3654C17.1984 24.4057 17.0921 24.4434 16.9854 24.4803C16.8951 24.512 16.8049 24.5437 16.7134 24.5732C16.6049 24.6083 16.4965 24.6404 16.3858 24.6721C16.2952 24.699 16.2041 24.7259 16.1125 24.7506C16.0774 24.7597 16.0422 24.7671 16.0071 24.7762C17.2912 23.5292 18.2442 21.9816 18.7797 20.2735C19.8094 20.5451 20.8063 20.9288 21.7523 21.4176C21.738 21.4332 21.7259 21.4484 21.7133 21.4614ZM22.3371 20.7629C21.295 20.1982 20.1899 19.7584 19.0448 19.4526C19.6062 17.5004 19.9009 15.4812 19.9207 13.45H25.1224C25.0279 16.1285 24.0484 18.7002 22.3371 20.7629Z" fill="white"/>
</g>
<defs>
<clipPath id="clip0_974_2462">
<rect width="26" height="26" fill="white"/>
</clipPath>
</defs>
</svg>
