<svg width="23" height="26" viewBox="0 0 23 26" fill="none" xmlns="http://www.w3.org/2000/svg">
<g clip-path="url(#clip0_1152_3256)">
<path d="M11.4005 13.5159C7.67591 13.5159 4.64258 10.4825 4.64258 6.75794C4.64258 3.03333 7.67591 0 11.4005 0C15.1251 0 18.1585 3.03333 18.1585 6.75794C18.1585 10.4825 15.1251 13.5159 11.4005 13.5159ZM11.4005 1.13492C8.30012 1.13492 5.7775 3.65754 5.7775 6.75794C5.7775 9.85833 8.30012 12.381 11.4005 12.381C14.5009 12.381 17.0235 9.85833 17.0235 6.75794C17.0235 3.65754 14.5009 1.13492 11.4005 1.13492Z" fill="white"/>
<path d="M0.56746 25.9999C0.252778 25.9999 0 25.7471 0 25.4324C0 22.7963 1.02143 20.3046 2.88373 18.4166C4.75119 16.5181 7.22738 15.4761 9.85318 15.4761H12.9484C15.5742 15.4761 18.0504 16.5181 19.9179 18.4166C21.775 20.3046 22.8016 22.7963 22.8016 25.4324C22.8016 25.7471 22.5488 25.9999 22.2341 25.9999H0.56746ZM9.85318 16.611C5.38056 16.611 1.56825 20.1396 1.17103 24.638L1.1504 24.865H21.6512L21.6306 24.638C21.2333 20.1396 17.421 16.611 12.9484 16.611H9.85318Z" fill="white"/>
</g>
<defs>
<clipPath id="clip0_1152_3256">
<rect width="22.8016" height="26" fill="white"/>
</clipPath>
</defs>
</svg>
