<svg width="22" height="22" viewBox="0 0 22 22" fill="none" xmlns="http://www.w3.org/2000/svg">
<path d="M7.63854 19.8382C7.56479 19.8382 7.49232 19.819 7.42832 19.7823C7.36432 19.7457 7.31101 19.6929 7.27368 19.6293C5.69226 16.9351 1.4782 11.2012 1.43581 11.1435C1.3756 11.0617 1.34685 10.9609 1.35482 10.8596C1.36279 10.7584 1.40695 10.6633 1.47922 10.5919L2.77459 9.31188C2.84497 9.24233 2.93749 9.19965 3.03607 9.19126C3.13466 9.18287 3.23306 9.20929 3.31418 9.26593L7.55033 12.2239C10.3667 8.60593 12.9839 6.10906 14.7041 4.63785C16.6323 2.98857 17.8582 2.24747 17.9094 2.21658C17.9752 2.17711 18.0505 2.15625 18.1272 2.15625H20.2227C20.3085 2.15624 20.3923 2.18229 20.4629 2.23097C20.5335 2.27964 20.5877 2.34863 20.6182 2.42879C20.6487 2.50895 20.6542 2.59649 20.6338 2.67981C20.6134 2.76313 20.5682 2.83829 20.5041 2.89532C17.3974 5.66225 14.1675 10.0586 12.005 13.2593C9.65429 16.7384 8.0224 19.5961 8.00619 19.6245C7.96946 19.689 7.91641 19.7427 7.85236 19.7802C7.78832 19.8177 7.71554 19.8377 7.64133 19.8382L7.63854 19.8382Z" fill="#16CB8D"/>
</svg>
