<svg width="90" height="90" viewBox="0 0 90 90" fill="none" xmlns="http://www.w3.org/2000/svg">
<g clip-path="url(#clip0_3733_607)">
<mask id="mask0_3733_607" style="mask-type:alpha" maskUnits="userSpaceOnUse" x="0" y="8" width="90" height="74">
<path d="M1.885 37.8874C6.66507 20.7924 18.4573 8.38281 29.9198 8.38281C30.8405 8.38281 31.7602 8.46295 32.6563 8.6214C33.1645 8.71065 33.6089 9.00935 33.8839 9.44282C34.158 9.87903 34.2354 10.409 34.0961 10.9044L31.7366 19.3445C31.5089 20.1595 30.723 20.7105 29.9061 20.6731L29.7185 20.6695C25.4676 20.6695 17.6987 27.0405 13.7382 41.2004C13.5816 41.7623 13.4331 42.3369 13.2902 42.9361C17.736 40.736 23.0397 40.2269 27.8426 41.5647C38.6776 44.5963 45.025 55.8757 41.9961 66.709C39.5409 75.4869 31.4661 81.6193 22.3595 81.6193C20.5044 81.6193 18.6521 81.3634 16.8536 80.8598C9.70851 78.8627 4.3365 72.9307 1.72654 64.1601C-0.629345 56.2473 -0.570152 46.6717 1.885 37.8874Z" fill="#FBFAFA"/>
<path d="M77.1708 8.38281C78.0897 8.38281 79.0104 8.46113 79.9056 8.61958C80.4128 8.70701 80.8581 9.00753 81.1322 9.441C81.4063 9.87721 81.4837 10.4072 81.3453 10.9026L78.9849 19.3427C78.7572 20.1577 77.9859 20.7086 77.1544 20.6713L76.9687 20.6677C72.7177 20.6677 64.9479 27.0387 60.9874 41.1986C60.8299 41.7641 60.6814 42.3387 60.5394 42.9343C64.9871 40.7341 70.2889 40.2251 75.0918 41.5628C85.925 44.5944 92.2742 55.8739 89.2435 66.7072C86.7883 75.4851 78.7135 81.6175 69.6069 81.6175C67.7518 81.6175 65.8995 81.3616 64.1001 80.858C56.9559 78.8609 51.5839 72.9288 48.973 64.1582C46.6181 56.2455 46.6763 46.6689 49.1324 37.8838C53.9152 20.7906 65.7056 8.38281 77.1708 8.38281Z" fill="#FBFAFA"/>
</mask>
<g mask="url(#mask0_3733_607)">
<rect width="90" height="90" fill="url(#paint0_linear_3733_607)"/>
</g>
</g>
<defs>
<linearGradient id="paint0_linear_3733_607" x1="45" y1="23" x2="45" y2="81.5" gradientUnits="userSpaceOnUse">
<stop stop-color="white"/>
<stop offset="1" stop-color="white" stop-opacity="0"/>
</linearGradient>
<clipPath id="clip0_3733_607">
<rect width="90" height="90" fill="white" transform="matrix(-1 -8.74228e-08 -8.74228e-08 1 90 0)"/>
</clipPath>
</defs>
</svg>
