<svg width="205" height="333" viewBox="0 0 205 333" fill="none" xmlns="http://www.w3.org/2000/svg">
<defs>
    <style>
        .top{
            animation: top 3s infinite alternate;
        }
        @keyframes top{
            0%{
                transform: translateY(0px);
            }
            100%{
                transform: translateY(30px);
            }
        }
    </style>
</defs>
<g class="top">
    <rect opacity="0.1" x="28.334" y="0.326416" width="177.022" height="171.946" rx="24" transform="rotate(3.97905 28.334 0.326416)" fill="white"/>
    <rect x="29" y="15" width="160.665" height="156.058" rx="24" fill="#FCC949"/>
    <g>
        <path d="M53.6729 88.031C54.8291 88.031 55.6982 87.4587 56.2803 86.3142L57.1943 86.7712C56.8545 87.4822 56.376 88.0232 55.7588 88.3943C55.1455 88.7654 54.4326 88.9509 53.6201 88.9509C52.7842 88.9509 52.0654 88.7771 51.4639 88.4294C50.8623 88.0818 50.3994 87.5876 50.0752 86.947C49.7549 86.3025 49.5947 85.5427 49.5947 84.6677C49.5947 83.7888 49.7549 83.0349 50.0752 82.406C50.3955 81.7771 50.8564 81.2947 51.458 80.9587C52.0596 80.6228 52.7783 80.4548 53.6143 80.4548C54.4932 80.4548 55.2275 80.6267 55.8174 80.9705C56.4072 81.3142 56.8408 81.824 57.1182 82.4998L56.0576 82.8513C55.8662 82.3708 55.5576 82.0037 55.1318 81.7498C54.71 81.4958 54.208 81.3689 53.626 81.3689C52.7119 81.3689 52.001 81.6638 51.4932 82.2537C50.9854 82.8396 50.7314 83.6443 50.7314 84.6677C50.7314 85.3396 50.8506 85.9294 51.0889 86.4373C51.3311 86.9412 51.6709 87.3337 52.1084 87.615C52.5498 87.8923 53.0713 88.031 53.6729 88.031ZM63.8271 85.658C63.8271 86.7673 63.583 87.5935 63.0947 88.1365C62.6064 88.6794 61.8975 88.9509 60.9678 88.9509C60.042 88.9509 59.3428 88.6697 58.8701 88.1072C58.3975 87.5408 58.1611 86.7244 58.1611 85.658C58.1611 84.5642 58.3975 83.7439 58.8701 83.197C59.3467 82.6501 60.0576 82.3767 61.0029 82.3767C61.9717 82.3767 62.6846 82.6443 63.1416 83.1794C63.5986 83.7107 63.8271 84.5369 63.8271 85.658ZM62.7197 85.658C62.7197 84.783 62.5889 84.1482 62.3271 83.7537C62.0693 83.3552 61.6338 83.156 61.0205 83.156C60.4033 83.156 59.9561 83.3591 59.6787 83.7654C59.4053 84.1677 59.2686 84.7986 59.2686 85.658C59.2686 86.4939 59.4033 87.1228 59.6729 87.5447C59.9463 87.9626 60.374 88.1716 60.9561 88.1716C61.5889 88.1716 62.04 87.9685 62.3096 87.5623C62.583 87.156 62.7197 86.5212 62.7197 85.658ZM66.2236 85.1599V88.8337H65.1689V83.8474C65.1689 83.4763 65.165 83.1794 65.1572 82.9568C65.1533 82.7302 65.1455 82.5759 65.1338 82.4939H66.1299C66.1377 82.5681 66.1436 82.6619 66.1475 82.7751C66.1553 82.8884 66.1611 83.0134 66.165 83.1501C66.1689 83.2869 66.1729 83.4294 66.1768 83.5779H66.1943C66.4365 83.1404 66.7158 82.8318 67.0322 82.6521C67.3525 82.4685 67.749 82.3767 68.2217 82.3767C68.917 82.3767 69.4248 82.5544 69.7451 82.9099C70.0693 83.2654 70.2314 83.8318 70.2314 84.6091V88.8337H69.1709V84.8142C69.1709 84.2087 69.0732 83.7869 68.8779 83.5486C68.6826 83.3103 68.3447 83.1912 67.8643 83.1912C67.3564 83.1912 66.9561 83.365 66.6631 83.7126C66.3701 84.0603 66.2236 84.5427 66.2236 85.1599ZM72.9033 85.1599V88.8337H71.8486V83.8474C71.8486 83.4763 71.8447 83.1794 71.8369 82.9568C71.833 82.7302 71.8252 82.5759 71.8135 82.4939H72.8096C72.8174 82.5681 72.8232 82.6619 72.8271 82.7751C72.835 82.8884 72.8408 83.0134 72.8447 83.1501C72.8486 83.2869 72.8525 83.4294 72.8564 83.5779H72.874C73.1162 83.1404 73.3955 82.8318 73.7119 82.6521C74.0322 82.4685 74.4287 82.3767 74.9014 82.3767C75.5967 82.3767 76.1045 82.5544 76.4248 82.9099C76.749 83.2654 76.9111 83.8318 76.9111 84.6091V88.8337H75.8506V84.8142C75.8506 84.2087 75.7529 83.7869 75.5576 83.5486C75.3623 83.3103 75.0244 83.1912 74.5439 83.1912C74.0361 83.1912 73.6357 83.365 73.3428 83.7126C73.0498 84.0603 72.9033 84.5427 72.9033 85.1599ZM79.3135 85.8865C79.3135 86.613 79.4639 87.1736 79.7646 87.5681C80.0654 87.9626 80.5049 88.1599 81.083 88.1599C81.54 88.1599 81.9053 88.0681 82.1787 87.8845C82.4561 87.7009 82.6436 87.4685 82.7412 87.1873L83.667 87.4509C83.2881 88.4509 82.4268 88.9509 81.083 88.9509C80.1455 88.9509 79.4307 88.6716 78.9385 88.113C78.4502 87.5544 78.2061 86.7244 78.2061 85.6228C78.2061 84.5759 78.4502 83.7732 78.9385 83.2146C79.4307 82.656 80.1318 82.3767 81.042 82.3767C81.9756 82.3767 82.6748 82.658 83.1396 83.2205C83.6045 83.783 83.8369 84.6248 83.8369 85.7458V85.8865H79.3135ZM82.7471 85.0779C82.6885 84.4099 82.5186 83.9236 82.2373 83.6189C81.9561 83.3103 81.5518 83.156 81.0244 83.156C80.5127 83.156 80.1064 83.3279 79.8057 83.6716C79.5088 84.0115 79.3486 84.4802 79.3252 85.0779H82.7471ZM87.6162 88.9509C86.7295 88.9509 86.0518 88.6716 85.583 88.113C85.1182 87.5505 84.8857 86.7322 84.8857 85.658C84.8857 84.5916 85.1201 83.7791 85.5889 83.2205C86.0576 82.658 86.7295 82.3767 87.6045 82.3767C88.2529 82.3767 88.79 82.5447 89.2158 82.8806C89.6455 83.2166 89.915 83.6794 90.0244 84.2693L88.9404 84.3513C88.8857 83.9998 88.7471 83.7205 88.5244 83.5134C88.3018 83.3064 87.9854 83.2029 87.5752 83.2029C87.0166 83.2029 86.6123 83.3884 86.3623 83.7595C86.1123 84.1306 85.9873 84.7556 85.9873 85.6345C85.9873 86.4783 86.1201 87.1033 86.3857 87.5095C86.6514 87.9158 87.0518 88.1189 87.5869 88.1189C87.9619 88.1189 88.2744 88.0173 88.5244 87.8142C88.7783 87.6111 88.9346 87.2986 88.9932 86.8767L90.0596 86.947C90.0049 87.3533 89.8682 87.7068 89.6494 88.0076C89.4346 88.3083 89.1533 88.5408 88.8057 88.7048C88.4619 88.8689 88.0654 88.9509 87.6162 88.9509ZM93.6221 88.7869C93.2783 88.8806 92.9229 88.9275 92.5557 88.9275C92.1338 88.9275 91.8174 88.8083 91.6064 88.5701C91.3955 88.3279 91.29 87.9685 91.29 87.4919V83.2615H90.5576V82.4939H91.3311L91.6416 81.0759H92.3447V82.4939H93.5166V83.2615H92.3447V87.2634C92.3447 87.5681 92.3936 87.783 92.4912 87.908C92.5928 88.0291 92.7666 88.0896 93.0127 88.0896C93.1455 88.0896 93.3486 88.0623 93.6221 88.0076V88.7869ZM100.302 88.7869C99.958 88.8806 99.6025 88.9275 99.2354 88.9275C98.8135 88.9275 98.4971 88.8083 98.2861 88.5701C98.0752 88.3279 97.9697 87.9685 97.9697 87.4919V83.2615H97.2373V82.4939H98.0107L98.3213 81.0759H99.0244V82.4939H100.196V83.2615H99.0244V87.2634C99.0244 87.5681 99.0732 87.783 99.1709 87.908C99.2725 88.0291 99.4463 88.0896 99.6924 88.0896C99.8252 88.0896 100.028 88.0623 100.302 88.0076V88.7869ZM106.565 85.658C106.565 86.7673 106.321 87.5935 105.833 88.1365C105.345 88.6794 104.636 88.9509 103.706 88.9509C102.78 88.9509 102.081 88.6697 101.608 88.1072C101.136 87.5408 100.899 86.7244 100.899 85.658C100.899 84.5642 101.136 83.7439 101.608 83.197C102.085 82.6501 102.796 82.3767 103.741 82.3767C104.71 82.3767 105.423 82.6443 105.88 83.1794C106.337 83.7107 106.565 84.5369 106.565 85.658ZM105.458 85.658C105.458 84.783 105.327 84.1482 105.065 83.7537C104.808 83.3552 104.372 83.156 103.759 83.156C103.142 83.156 102.694 83.3591 102.417 83.7654C102.144 84.1677 102.007 84.7986 102.007 85.658C102.007 86.4939 102.142 87.1228 102.411 87.5447C102.685 87.9626 103.112 88.1716 103.694 88.1716C104.327 88.1716 104.778 87.9685 105.048 87.5623C105.321 87.156 105.458 86.5212 105.458 85.658ZM112.841 88.9509C112.204 88.9509 111.726 88.783 111.405 88.447C111.085 88.1111 110.925 87.6501 110.925 87.0642C110.925 86.408 111.14 85.9041 111.569 85.5525C112.003 85.2009 112.7 85.0134 113.661 84.99L115.085 84.9666V84.6208C115.085 84.1052 114.976 83.7361 114.757 83.5134C114.538 83.2908 114.194 83.1794 113.726 83.1794C113.253 83.1794 112.909 83.2595 112.694 83.4197C112.479 83.5798 112.351 83.8357 112.308 84.1873L111.206 84.0876C111.386 82.947 112.233 82.3767 113.749 82.3767C114.546 82.3767 115.146 82.5603 115.548 82.9275C115.95 83.2908 116.151 83.8181 116.151 84.5095V87.24C116.151 87.5525 116.192 87.7888 116.274 87.949C116.356 88.1052 116.513 88.1833 116.743 88.1833C116.853 88.1833 116.968 88.1697 117.089 88.1423V88.7986C116.956 88.8298 116.821 88.8533 116.685 88.8689C116.548 88.8845 116.411 88.8923 116.274 88.8923C115.884 88.8923 115.599 88.7908 115.419 88.5876C115.243 88.3806 115.144 88.0583 115.12 87.6208H115.085C114.815 88.1052 114.501 88.449 114.142 88.6521C113.786 88.8513 113.353 88.9509 112.841 88.9509ZM115.085 85.7048L113.931 85.7283C113.438 85.7322 113.063 85.783 112.806 85.8806C112.548 85.9744 112.351 86.1189 112.214 86.3142C112.077 86.5095 112.009 86.7654 112.009 87.0818C112.009 87.4255 112.101 87.6912 112.284 87.8787C112.472 88.0662 112.737 88.1599 113.081 88.1599C113.472 88.1599 113.815 88.072 114.112 87.8962C114.413 87.7205 114.649 87.4802 114.821 87.1755C114.997 86.8669 115.085 86.5505 115.085 86.2263V85.7048ZM122.315 85.1599V88.8337H121.267V83.8474C121.267 83.4763 121.263 83.1794 121.255 82.9568C121.251 82.7302 121.243 82.5759 121.231 82.4939H122.228C122.235 82.5798 122.243 82.6853 122.251 82.8103C122.259 82.9353 122.265 83.0662 122.269 83.2029C122.272 83.3357 122.274 83.4607 122.274 83.5779H122.292C122.519 83.1287 122.778 82.8162 123.071 82.6404C123.364 82.4646 123.722 82.3767 124.144 82.3767C124.624 82.3767 125.003 82.4724 125.28 82.6638C125.562 82.8552 125.757 83.1599 125.866 83.5779H125.884C126.103 83.1521 126.366 82.8455 126.675 82.658C126.987 82.4705 127.364 82.3767 127.806 82.3767C128.446 82.3767 128.911 82.5505 129.2 82.8982C129.493 83.2458 129.64 83.8162 129.64 84.6091V88.8337H128.597V84.8142C128.597 84.2009 128.513 83.7771 128.345 83.5427C128.177 83.3083 127.874 83.1912 127.437 83.1912C126.976 83.1912 126.616 83.363 126.358 83.7068C126.104 84.0466 125.978 84.531 125.978 85.1599V88.8337H124.935V84.8142C124.935 84.2009 124.851 83.7771 124.683 83.5427C124.515 83.3083 124.212 83.1912 123.774 83.1912C123.325 83.1912 122.97 83.363 122.708 83.7068C122.446 84.0505 122.315 84.5349 122.315 85.1599ZM135.247 87.7498C135.005 88.1873 134.724 88.4978 134.403 88.6814C134.087 88.8611 133.692 88.9509 133.22 88.9509C132.524 88.9509 132.015 88.7791 131.69 88.4353C131.37 88.0876 131.21 87.5154 131.21 86.7185V82.4939H132.271V86.5134C132.271 87.1462 132.368 87.5759 132.563 87.8025C132.763 88.0251 133.101 88.1365 133.577 88.1365C134.085 88.1365 134.485 87.9626 134.778 87.615C135.071 87.2673 135.218 86.7849 135.218 86.1677V82.4939H136.272V87.4802C136.272 87.8474 136.274 88.1443 136.278 88.3708C136.286 88.5974 136.296 88.7517 136.308 88.8337H135.312C135.308 88.8142 135.3 88.7224 135.288 88.5583C135.28 88.3943 135.272 88.1248 135.265 87.7498H135.247ZM138.974 80.1384V88.8337H137.919V80.1384H138.974ZM143.028 88.7869C142.685 88.8806 142.329 88.9275 141.962 88.9275C141.54 88.9275 141.224 88.8083 141.013 88.5701C140.802 88.3279 140.696 87.9685 140.696 87.4919V83.2615H139.964V82.4939H140.737L141.048 81.0759H141.751V82.4939H142.923V83.2615H141.751V87.2634C141.751 87.5681 141.8 87.783 141.897 87.908C141.999 88.0291 142.173 88.0896 142.419 88.0896C142.552 88.0896 142.755 88.0623 143.028 88.0076V88.7869ZM144.979 80.1384V81.1462H143.925V80.1384H144.979ZM144.979 82.4939V88.8337H143.925V82.4939H144.979ZM149.04 88.7869C148.696 88.8806 148.341 88.9275 147.974 88.9275C147.552 88.9275 147.235 88.8083 147.024 88.5701C146.813 88.3279 146.708 87.9685 146.708 87.4919V83.2615H145.976V82.4939H146.749L147.06 81.0759H147.763V82.4939H148.935V83.2615H147.763V87.2634C147.763 87.5681 147.812 87.783 147.909 87.908C148.011 88.0291 148.185 88.0896 148.431 88.0896C148.563 88.0896 148.767 88.0623 149.04 88.0076V88.7869ZM153.95 87.7498C153.708 88.1873 153.427 88.4978 153.106 88.6814C152.79 88.8611 152.396 88.9509 151.923 88.9509C151.228 88.9509 150.718 88.7791 150.394 88.4353C150.073 88.0876 149.913 87.5154 149.913 86.7185V82.4939H150.974V86.5134C150.974 87.1462 151.071 87.5759 151.267 87.8025C151.466 88.0251 151.804 88.1365 152.28 88.1365C152.788 88.1365 153.188 87.9626 153.481 87.615C153.774 87.2673 153.921 86.7849 153.921 86.1677V82.4939H154.976V87.4802C154.976 87.8474 154.978 88.1443 154.981 88.3708C154.989 88.5974 154.999 88.7517 155.011 88.8337H154.015C154.011 88.8142 154.003 88.7224 153.991 88.5583C153.983 88.3943 153.976 88.1248 153.968 87.7498H153.95ZM160.706 88.8337C160.698 88.7908 160.688 88.7107 160.677 88.5935C160.669 88.4724 160.661 88.3396 160.653 88.1951C160.649 88.0505 160.647 87.9236 160.647 87.8142H160.624C160.429 88.2205 160.169 88.5115 159.845 88.6873C159.524 88.863 159.126 88.9509 158.649 88.9509C157.849 88.9509 157.259 88.6814 156.88 88.1423C156.505 87.6033 156.317 86.7869 156.317 85.6931C156.317 84.5876 156.511 83.7595 156.897 83.2087C157.288 82.6541 157.872 82.3767 158.649 82.3767C159.13 82.3767 159.53 82.4646 159.851 82.6404C160.171 82.8162 160.429 83.0955 160.624 83.4783H160.636L160.624 82.7693V80.1384H161.679V87.5271C161.679 87.8591 161.681 88.1345 161.685 88.3533C161.692 88.5681 161.702 88.7283 161.714 88.8337H160.706ZM157.425 85.658C157.425 86.5447 157.542 87.1794 157.776 87.5623C158.011 87.9451 158.392 88.1365 158.919 88.1365C159.517 88.1365 159.95 87.9294 160.22 87.5154C160.489 87.1013 160.624 86.4587 160.624 85.5876C160.624 84.7478 160.489 84.1326 160.22 83.7419C159.95 83.3513 159.521 83.156 158.931 83.156C158.399 83.156 158.015 83.3533 157.776 83.7478C157.542 84.1384 157.425 84.7751 157.425 85.658ZM164.11 85.8865C164.11 86.613 164.261 87.1736 164.562 87.5681C164.862 87.9626 165.302 88.1599 165.88 88.1599C166.337 88.1599 166.702 88.0681 166.976 87.8845C167.253 87.7009 167.44 87.4685 167.538 87.1873L168.464 87.4509C168.085 88.4509 167.224 88.9509 165.88 88.9509C164.942 88.9509 164.228 88.6716 163.735 88.113C163.247 87.5544 163.003 86.7244 163.003 85.6228C163.003 84.5759 163.247 83.7732 163.735 83.2146C164.228 82.656 164.929 82.3767 165.839 82.3767C166.772 82.3767 167.472 82.658 167.937 83.2205C168.401 83.783 168.634 84.6248 168.634 85.7458V85.8865H164.11ZM167.544 85.0779C167.485 84.4099 167.315 83.9236 167.034 83.6189C166.753 83.3103 166.349 83.156 165.821 83.156C165.31 83.156 164.903 83.3279 164.603 83.6716C164.306 84.0115 164.146 84.4802 164.122 85.0779H167.544ZM55.1553 103.658C55.1553 104.767 54.9111 105.594 54.4229 106.136C53.9346 106.679 53.2256 106.951 52.2959 106.951C51.3701 106.951 50.6709 106.67 50.1982 106.107C49.7256 105.541 49.4893 104.724 49.4893 103.658C49.4893 102.564 49.7256 101.744 50.1982 101.197C50.6748 100.65 51.3857 100.377 52.3311 100.377C53.2998 100.377 54.0127 100.644 54.4697 101.179C54.9268 101.711 55.1553 102.537 55.1553 103.658ZM54.0479 103.658C54.0479 102.783 53.917 102.148 53.6553 101.754C53.3975 101.355 52.9619 101.156 52.3486 101.156C51.7314 101.156 51.2842 101.359 51.0068 101.765C50.7334 102.168 50.5967 102.799 50.5967 103.658C50.5967 104.494 50.7314 105.123 51.001 105.545C51.2744 105.963 51.7021 106.172 52.2842 106.172C52.917 106.172 53.3682 105.969 53.6377 105.562C53.9111 105.156 54.0479 104.521 54.0479 103.658ZM57.7803 101.261V106.834H56.7256V101.261H55.835V100.494H56.7256V99.7791C56.7256 99.2009 56.8525 98.7849 57.1064 98.531C57.3604 98.2771 57.749 98.1501 58.2725 98.1501C58.5654 98.1501 58.8135 98.1736 59.0166 98.2205V99.0232C58.8291 98.9919 58.6729 98.9763 58.5479 98.9763C58.2783 98.9763 58.083 99.0447 57.9619 99.1814C57.8408 99.3181 57.7803 99.5662 57.7803 99.9255V100.494H59.0166V101.261H57.7803ZM67.9111 105.082C67.9111 105.679 67.6846 106.14 67.2314 106.465C66.7822 106.789 66.1514 106.951 65.3389 106.951C64.5498 106.951 63.9404 106.822 63.5107 106.564C63.085 106.302 62.8076 105.896 62.6787 105.345L63.6104 105.164C63.7002 105.504 63.8857 105.754 64.167 105.914C64.4482 106.07 64.8389 106.148 65.3389 106.148C65.874 106.148 66.2646 106.066 66.5107 105.902C66.7607 105.738 66.8857 105.492 66.8857 105.164C66.8857 104.914 66.7998 104.711 66.6279 104.554C66.4561 104.398 66.1787 104.269 65.7959 104.168C65.3428 104.047 64.9814 103.947 64.7119 103.869C64.4463 103.791 64.2412 103.724 64.0967 103.67C63.9521 103.611 63.8369 103.556 63.751 103.506C63.4932 103.357 63.292 103.176 63.1475 102.961C63.0029 102.746 62.9307 102.482 62.9307 102.17C62.9307 101.592 63.1357 101.152 63.5459 100.851C63.96 100.547 64.5615 100.394 65.3506 100.394C66.0498 100.394 66.6045 100.517 67.0146 100.763C67.4287 101.01 67.6904 101.404 67.7998 101.947L66.8506 102.064C66.792 101.783 66.6338 101.568 66.376 101.42C66.1221 101.267 65.7803 101.191 65.3506 101.191C64.874 101.191 64.5225 101.263 64.2959 101.408C64.0693 101.552 63.9561 101.771 63.9561 102.064C63.9561 102.279 64.0205 102.457 64.1494 102.597C64.2783 102.734 64.5244 102.847 64.8877 102.937C65.376 103.054 65.8408 103.183 66.2822 103.324C66.7236 103.461 67.04 103.597 67.2314 103.734C67.4541 103.894 67.6221 104.084 67.7354 104.302C67.8525 104.517 67.9111 104.777 67.9111 105.082ZM74.5146 103.658C74.5146 104.767 74.2705 105.594 73.7822 106.136C73.2939 106.679 72.585 106.951 71.6553 106.951C70.7295 106.951 70.0303 106.67 69.5576 106.107C69.085 105.541 68.8486 104.724 68.8486 103.658C68.8486 102.564 69.085 101.744 69.5576 101.197C70.0342 100.65 70.7451 100.377 71.6904 100.377C72.6592 100.377 73.3721 100.644 73.8291 101.179C74.2861 101.711 74.5146 102.537 74.5146 103.658ZM73.4072 103.658C73.4072 102.783 73.2764 102.148 73.0146 101.754C72.7568 101.355 72.3213 101.156 71.708 101.156C71.0908 101.156 70.6436 101.359 70.3662 101.765C70.0928 102.168 69.9561 102.799 69.9561 103.658C69.9561 104.494 70.0908 105.123 70.3604 105.545C70.6338 105.963 71.0615 106.172 71.6436 106.172C72.2764 106.172 72.7275 105.969 72.9971 105.562C73.2705 105.156 73.4072 104.521 73.4072 103.658ZM79.8408 105.75C79.5986 106.187 79.3174 106.498 78.9971 106.681C78.6807 106.861 78.2861 106.951 77.8135 106.951C77.1182 106.951 76.6084 106.779 76.2842 106.435C75.9639 106.088 75.8037 105.515 75.8037 104.719V100.494H76.8643V104.513C76.8643 105.146 76.9619 105.576 77.1572 105.802C77.3564 106.025 77.6943 106.136 78.1709 106.136C78.6787 106.136 79.0791 105.963 79.3721 105.615C79.665 105.267 79.8115 104.785 79.8115 104.168V100.494H80.8662V105.48C80.8662 105.847 80.8682 106.144 80.8721 106.371C80.8799 106.597 80.8896 106.752 80.9014 106.834H79.9053C79.9014 106.814 79.8936 106.722 79.8818 106.558C79.874 106.394 79.8662 106.125 79.8584 105.75H79.8408ZM83.5908 103.529V106.834H82.5361V101.97C82.5361 101.748 82.5322 101.513 82.5244 101.267C82.5205 101.021 82.5127 100.763 82.501 100.494H83.4971C83.5049 100.674 83.5107 100.836 83.5146 100.98C83.5225 101.125 83.5283 101.252 83.5322 101.361C83.5361 101.467 83.5381 101.556 83.5381 101.631C83.542 101.701 83.5439 101.754 83.5439 101.789H83.5674C83.6846 101.406 83.8135 101.109 83.9541 100.898C84.0908 100.703 84.2471 100.568 84.4229 100.494C84.5986 100.416 84.8154 100.377 85.0732 100.377C85.2178 100.377 85.3604 100.396 85.501 100.435V101.402C85.3682 101.363 85.1807 101.344 84.9385 101.344C84.501 101.344 84.167 101.533 83.9365 101.912C83.7061 102.287 83.5908 102.826 83.5908 103.529ZM88.9404 106.951C88.0537 106.951 87.376 106.672 86.9072 106.113C86.4424 105.551 86.21 104.732 86.21 103.658C86.21 102.592 86.4443 101.779 86.9131 101.22C87.3818 100.658 88.0537 100.377 88.9287 100.377C89.5771 100.377 90.1143 100.545 90.54 100.881C90.9697 101.217 91.2393 101.679 91.3486 102.269L90.2646 102.351C90.21 102 90.0713 101.72 89.8486 101.513C89.626 101.306 89.3096 101.203 88.8994 101.203C88.3408 101.203 87.9365 101.388 87.6865 101.76C87.4365 102.131 87.3115 102.756 87.3115 103.635C87.3115 104.478 87.4443 105.103 87.71 105.51C87.9756 105.916 88.376 106.119 88.9111 106.119C89.2861 106.119 89.5986 106.017 89.8486 105.814C90.1025 105.611 90.2588 105.299 90.3174 104.877L91.3838 104.947C91.3291 105.353 91.1924 105.707 90.9736 106.008C90.7588 106.308 90.4775 106.541 90.1299 106.705C89.7861 106.869 89.3896 106.951 88.9404 106.951ZM93.3174 103.886C93.3174 104.613 93.4678 105.174 93.7686 105.568C94.0693 105.963 94.5088 106.16 95.0869 106.16C95.5439 106.16 95.9092 106.068 96.1826 105.885C96.46 105.701 96.6475 105.469 96.7451 105.187L97.6709 105.451C97.292 106.451 96.4307 106.951 95.0869 106.951C94.1494 106.951 93.4346 106.672 92.9424 106.113C92.4541 105.554 92.21 104.724 92.21 103.623C92.21 102.576 92.4541 101.773 92.9424 101.215C93.4346 100.656 94.1357 100.377 95.0459 100.377C95.9795 100.377 96.6787 100.658 97.1436 101.22C97.6084 101.783 97.8408 102.625 97.8408 103.746V103.886H93.3174ZM96.751 103.078C96.6924 102.41 96.5225 101.924 96.2412 101.619C95.96 101.31 95.5557 101.156 95.0283 101.156C94.5166 101.156 94.1104 101.328 93.8096 101.672C93.5127 102.011 93.3525 102.48 93.3291 103.078H96.751ZM103.946 105.082C103.946 105.679 103.72 106.14 103.267 106.465C102.817 106.789 102.187 106.951 101.374 106.951C100.585 106.951 99.9756 106.822 99.5459 106.564C99.1201 106.302 98.8428 105.896 98.7139 105.345L99.6455 105.164C99.7354 105.504 99.9209 105.754 100.202 105.914C100.483 106.07 100.874 106.148 101.374 106.148C101.909 106.148 102.3 106.066 102.546 105.902C102.796 105.738 102.921 105.492 102.921 105.164C102.921 104.914 102.835 104.711 102.663 104.554C102.491 104.398 102.214 104.269 101.831 104.168C101.378 104.047 101.017 103.947 100.747 103.869C100.481 103.791 100.276 103.724 100.132 103.67C99.9873 103.611 99.8721 103.556 99.7861 103.506C99.5283 103.357 99.3271 103.176 99.1826 102.961C99.0381 102.746 98.9658 102.482 98.9658 102.17C98.9658 101.592 99.1709 101.152 99.5811 100.851C99.9951 100.547 100.597 100.394 101.386 100.394C102.085 100.394 102.64 100.517 103.05 100.763C103.464 101.01 103.726 101.404 103.835 101.947L102.886 102.064C102.827 101.783 102.669 101.568 102.411 101.42C102.157 101.267 101.815 101.191 101.386 101.191C100.909 101.191 100.558 101.263 100.331 101.408C100.104 101.552 99.9912 101.771 99.9912 102.064C99.9912 102.279 100.056 102.457 100.185 102.597C100.313 102.734 100.56 102.847 100.923 102.937C101.411 103.054 101.876 103.183 102.317 103.324C102.759 103.461 103.075 103.597 103.267 103.734C103.489 103.894 103.657 104.084 103.771 104.302C103.888 104.517 103.946 104.777 103.946 105.082ZM109.583 98.1384V106.834H108.528V98.1384H109.583ZM112.249 98.1384V99.1462H111.194V98.1384H112.249ZM112.249 100.494V106.834H111.194V100.494H112.249ZM114.927 104.578V106.834H113.872V98.1384H114.927V103.57L117.71 100.494H118.946L116.374 103.219L119.081 106.834H117.845L115.7 103.939L114.927 104.578ZM120.681 103.886C120.681 104.613 120.831 105.174 121.132 105.568C121.433 105.963 121.872 106.16 122.45 106.16C122.907 106.16 123.272 106.068 123.546 105.885C123.823 105.701 124.011 105.469 124.108 105.187L125.034 105.451C124.655 106.451 123.794 106.951 122.45 106.951C121.513 106.951 120.798 106.672 120.306 106.113C119.817 105.554 119.573 104.724 119.573 103.623C119.573 102.576 119.817 101.773 120.306 101.215C120.798 100.656 121.499 100.377 122.409 100.377C123.343 100.377 124.042 100.658 124.507 101.22C124.972 101.783 125.204 102.625 125.204 103.746V103.886H120.681ZM124.114 103.078C124.056 102.41 123.886 101.924 123.604 101.619C123.323 101.31 122.919 101.156 122.392 101.156C121.88 101.156 121.474 101.328 121.173 101.672C120.876 102.011 120.716 102.48 120.692 103.078H124.114ZM131.198 101.261V106.834H130.144V101.261H129.253V100.494H130.144V99.7791C130.144 99.2009 130.271 98.7849 130.524 98.531C130.778 98.2771 131.167 98.1501 131.69 98.1501C131.983 98.1501 132.231 98.1736 132.435 98.2205V99.0232C132.247 98.9919 132.091 98.9763 131.966 98.9763C131.696 98.9763 131.501 99.0447 131.38 99.1814C131.259 99.3181 131.198 99.5662 131.198 99.9255V100.494H132.435V101.261H131.198ZM134.28 98.1384V99.1462H133.226V98.1384H134.28ZM134.28 100.494V106.834H133.226V100.494H134.28ZM136.958 98.1384V106.834H135.903V98.1384H136.958ZM139.384 103.886C139.384 104.613 139.534 105.174 139.835 105.568C140.136 105.963 140.575 106.16 141.153 106.16C141.61 106.16 141.976 106.068 142.249 105.885C142.526 105.701 142.714 105.469 142.812 105.187L143.737 105.451C143.358 106.451 142.497 106.951 141.153 106.951C140.216 106.951 139.501 106.672 139.009 106.113C138.521 105.554 138.276 104.724 138.276 103.623C138.276 102.576 138.521 101.773 139.009 101.215C139.501 100.656 140.202 100.377 141.112 100.377C142.046 100.377 142.745 100.658 143.21 101.22C143.675 101.783 143.907 102.625 143.907 103.746V103.886H139.384ZM142.817 103.078C142.759 102.41 142.589 101.924 142.308 101.619C142.026 101.31 141.622 101.156 141.095 101.156C140.583 101.156 140.177 101.328 139.876 101.672C139.579 102.011 139.419 102.48 139.396 103.078H142.817ZM150.013 105.082C150.013 105.679 149.786 106.14 149.333 106.465C148.884 106.789 148.253 106.951 147.44 106.951C146.651 106.951 146.042 106.822 145.612 106.564C145.187 106.302 144.909 105.896 144.78 105.345L145.712 105.164C145.802 105.504 145.987 105.754 146.269 105.914C146.55 106.07 146.94 106.148 147.44 106.148C147.976 106.148 148.366 106.066 148.612 105.902C148.862 105.738 148.987 105.492 148.987 105.164C148.987 104.914 148.901 104.711 148.729 104.554C148.558 104.398 148.28 104.269 147.897 104.168C147.444 104.047 147.083 103.947 146.813 103.869C146.548 103.791 146.343 103.724 146.198 103.67C146.054 103.611 145.938 103.556 145.853 103.506C145.595 103.357 145.394 103.176 145.249 102.961C145.104 102.746 145.032 102.482 145.032 102.17C145.032 101.592 145.237 101.152 145.647 100.851C146.062 100.547 146.663 100.394 147.452 100.394C148.151 100.394 148.706 100.517 149.116 100.763C149.53 101.01 149.792 101.404 149.901 101.947L148.952 102.064C148.894 101.783 148.735 101.568 148.478 101.42C148.224 101.267 147.882 101.191 147.452 101.191C146.976 101.191 146.624 101.263 146.397 101.408C146.171 101.552 146.058 101.771 146.058 102.064C146.058 102.279 146.122 102.457 146.251 102.597C146.38 102.734 146.626 102.847 146.989 102.937C147.478 103.054 147.942 103.183 148.384 103.324C148.825 103.461 149.142 103.597 149.333 103.734C149.556 103.894 149.724 104.084 149.837 104.302C149.954 104.517 150.013 104.777 150.013 105.082ZM156.212 106.951C155.575 106.951 155.097 106.783 154.776 106.447C154.456 106.111 154.296 105.65 154.296 105.064C154.296 104.408 154.511 103.904 154.94 103.552C155.374 103.201 156.071 103.013 157.032 102.99L158.456 102.967V102.621C158.456 102.105 158.347 101.736 158.128 101.513C157.909 101.291 157.565 101.179 157.097 101.179C156.624 101.179 156.28 101.26 156.065 101.42C155.851 101.58 155.722 101.836 155.679 102.187L154.577 102.088C154.757 100.947 155.604 100.377 157.12 100.377C157.917 100.377 158.517 100.56 158.919 100.927C159.321 101.291 159.522 101.818 159.522 102.51V105.24C159.522 105.552 159.563 105.789 159.646 105.949C159.728 106.105 159.884 106.183 160.114 106.183C160.224 106.183 160.339 106.17 160.46 106.142V106.799C160.327 106.83 160.192 106.853 160.056 106.869C159.919 106.885 159.782 106.892 159.646 106.892C159.255 106.892 158.97 106.791 158.79 106.588C158.614 106.381 158.515 106.058 158.491 105.621H158.456C158.187 106.105 157.872 106.449 157.513 106.652C157.157 106.851 156.724 106.951 156.212 106.951ZM158.456 103.705L157.302 103.728C156.81 103.732 156.435 103.783 156.177 103.881C155.919 103.974 155.722 104.119 155.585 104.314C155.448 104.51 155.38 104.765 155.38 105.082C155.38 105.426 155.472 105.691 155.655 105.879C155.843 106.066 156.108 106.16 156.452 106.16C156.843 106.16 157.187 106.072 157.483 105.896C157.784 105.72 158.021 105.48 158.192 105.176C158.368 104.867 158.456 104.551 158.456 104.226V103.705ZM162.353 103.16V106.834H161.298V101.847C161.298 101.476 161.294 101.179 161.286 100.957C161.282 100.73 161.274 100.576 161.263 100.494H162.259C162.267 100.568 162.272 100.662 162.276 100.775C162.284 100.888 162.29 101.013 162.294 101.15C162.298 101.287 162.302 101.429 162.306 101.578H162.323C162.565 101.14 162.845 100.832 163.161 100.652C163.481 100.469 163.878 100.377 164.351 100.377C165.046 100.377 165.554 100.554 165.874 100.91C166.198 101.265 166.36 101.832 166.36 102.609V106.834H165.3V102.814C165.3 102.209 165.202 101.787 165.007 101.549C164.812 101.31 164.474 101.191 163.993 101.191C163.485 101.191 163.085 101.365 162.792 101.713C162.499 102.06 162.353 102.543 162.353 103.16ZM172.038 106.834C172.03 106.791 172.021 106.711 172.009 106.594C172.001 106.472 171.993 106.34 171.985 106.195C171.981 106.051 171.979 105.924 171.979 105.814H171.956C171.761 106.22 171.501 106.511 171.177 106.687C170.856 106.863 170.458 106.951 169.981 106.951C169.181 106.951 168.591 106.681 168.212 106.142C167.837 105.603 167.649 104.787 167.649 103.693C167.649 102.588 167.843 101.76 168.229 101.209C168.62 100.654 169.204 100.377 169.981 100.377C170.462 100.377 170.862 100.465 171.183 100.64C171.503 100.816 171.761 101.095 171.956 101.478H171.968L171.956 100.769V98.1384H173.011V105.527C173.011 105.859 173.013 106.135 173.017 106.353C173.024 106.568 173.034 106.728 173.046 106.834H172.038ZM168.757 103.658C168.757 104.545 168.874 105.179 169.108 105.562C169.343 105.945 169.724 106.136 170.251 106.136C170.849 106.136 171.282 105.929 171.552 105.515C171.821 105.101 171.956 104.459 171.956 103.588C171.956 102.748 171.821 102.133 171.552 101.742C171.282 101.351 170.853 101.156 170.263 101.156C169.731 101.156 169.347 101.353 169.108 101.748C168.874 102.138 168.757 102.775 168.757 103.658ZM51.1006 119.261V124.834H50.0459V119.261H49.1553V118.494H50.0459V117.779C50.0459 117.201 50.1729 116.785 50.4268 116.531C50.6807 116.277 51.0693 116.15 51.5928 116.15C51.8857 116.15 52.1338 116.174 52.3369 116.22V117.023C52.1494 116.992 51.9932 116.976 51.8682 116.976C51.5986 116.976 51.4033 117.045 51.2822 117.181C51.1611 117.318 51.1006 117.566 51.1006 117.926V118.494H52.3369V119.261H51.1006ZM53.9424 121.886C53.9424 122.613 54.0928 123.174 54.3936 123.568C54.6943 123.963 55.1338 124.16 55.7119 124.16C56.1689 124.16 56.5342 124.068 56.8076 123.885C57.085 123.701 57.2725 123.469 57.3701 123.187L58.2959 123.451C57.917 124.451 57.0557 124.951 55.7119 124.951C54.7744 124.951 54.0596 124.672 53.5674 124.113C53.0791 123.554 52.835 122.724 52.835 121.623C52.835 120.576 53.0791 119.773 53.5674 119.215C54.0596 118.656 54.7607 118.377 55.6709 118.377C56.6045 118.377 57.3037 118.658 57.7686 119.22C58.2334 119.783 58.4658 120.625 58.4658 121.746V121.886H53.9424ZM57.376 121.078C57.3174 120.41 57.1475 119.924 56.8662 119.619C56.585 119.31 56.1807 119.156 55.6533 119.156C55.1416 119.156 54.7354 119.328 54.4346 119.672C54.1377 120.011 53.9775 120.48 53.9541 121.078H57.376ZM60.6221 121.886C60.6221 122.613 60.7725 123.174 61.0732 123.568C61.374 123.963 61.8135 124.16 62.3916 124.16C62.8486 124.16 63.2139 124.068 63.4873 123.885C63.7646 123.701 63.9521 123.469 64.0498 123.187L64.9756 123.451C64.5967 124.451 63.7354 124.951 62.3916 124.951C61.4541 124.951 60.7393 124.672 60.2471 124.113C59.7588 123.554 59.5146 122.724 59.5146 121.623C59.5146 120.576 59.7588 119.773 60.2471 119.215C60.7393 118.656 61.4404 118.377 62.3506 118.377C63.2842 118.377 63.9834 118.658 64.4482 119.22C64.9131 119.783 65.1455 120.625 65.1455 121.746V121.886H60.6221ZM64.0557 121.078C63.9971 120.41 63.8271 119.924 63.5459 119.619C63.2646 119.31 62.8604 119.156 62.333 119.156C61.8213 119.156 61.415 119.328 61.1143 119.672C60.8174 120.011 60.6572 120.48 60.6338 121.078H64.0557ZM70.5771 124.834C70.5693 124.791 70.5596 124.711 70.5479 124.594C70.54 124.472 70.5322 124.34 70.5244 124.195C70.5205 124.051 70.5186 123.924 70.5186 123.814H70.4951C70.2998 124.22 70.04 124.511 69.7158 124.687C69.3955 124.863 68.9971 124.951 68.5205 124.951C67.7197 124.951 67.1299 124.681 66.751 124.142C66.376 123.603 66.1885 122.787 66.1885 121.693C66.1885 120.588 66.3818 119.76 66.7686 119.209C67.1592 118.654 67.7432 118.377 68.5205 118.377C69.001 118.377 69.4014 118.465 69.7217 118.64C70.042 118.816 70.2998 119.095 70.4951 119.478H70.5068L70.4951 118.769V116.138H71.5498V123.527C71.5498 123.859 71.5518 124.135 71.5557 124.353C71.5635 124.568 71.5732 124.728 71.585 124.834H70.5771ZM67.2959 121.658C67.2959 122.545 67.4131 123.179 67.6475 123.562C67.8818 123.945 68.2627 124.136 68.79 124.136C69.3877 124.136 69.8213 123.929 70.0908 123.515C70.3604 123.101 70.4951 122.459 70.4951 121.588C70.4951 120.748 70.3604 120.133 70.0908 119.742C69.8213 119.351 69.3916 119.156 68.8018 119.156C68.2705 119.156 67.8857 119.353 67.6475 119.748C67.4131 120.138 67.2959 120.775 67.2959 121.658ZM77.9307 123.082C77.9307 123.679 77.7041 124.14 77.251 124.465C76.8018 124.789 76.1709 124.951 75.3584 124.951C74.5693 124.951 73.96 124.822 73.5303 124.564C73.1045 124.302 72.8271 123.896 72.6982 123.345L73.6299 123.164C73.7197 123.504 73.9053 123.754 74.1865 123.914C74.4678 124.07 74.8584 124.148 75.3584 124.148C75.8936 124.148 76.2842 124.066 76.5303 123.902C76.7803 123.738 76.9053 123.492 76.9053 123.164C76.9053 122.914 76.8193 122.711 76.6475 122.554C76.4756 122.398 76.1982 122.269 75.8154 122.168C75.3623 122.047 75.001 121.947 74.7314 121.869C74.4658 121.791 74.2607 121.724 74.1162 121.67C73.9717 121.611 73.8564 121.556 73.7705 121.506C73.5127 121.357 73.3115 121.176 73.167 120.961C73.0225 120.746 72.9502 120.482 72.9502 120.17C72.9502 119.592 73.1553 119.152 73.5654 118.851C73.9795 118.547 74.5811 118.394 75.3701 118.394C76.0693 118.394 76.624 118.517 77.0342 118.763C77.4482 119.01 77.71 119.404 77.8193 119.947L76.8701 120.064C76.8115 119.783 76.6533 119.568 76.3955 119.42C76.1416 119.267 75.7998 119.191 75.3701 119.191C74.8936 119.191 74.542 119.263 74.3154 119.408C74.0889 119.552 73.9756 119.771 73.9756 120.064C73.9756 120.279 74.04 120.457 74.1689 120.597C74.2979 120.734 74.5439 120.847 74.9072 120.937C75.3955 121.054 75.8604 121.183 76.3018 121.324C76.7432 121.461 77.0596 121.597 77.251 121.734C77.4736 121.894 77.6416 122.084 77.7549 122.302C77.8721 122.517 77.9307 122.777 77.9307 123.082ZM80.6201 124.535C80.6201 124.949 80.583 125.295 80.5088 125.572C80.4346 125.849 80.3193 126.115 80.1631 126.369H79.4424C79.626 126.103 79.7627 125.842 79.8525 125.584C79.9463 125.33 79.9932 125.08 79.9932 124.834H79.4775V123.551H80.6201V124.535ZM91.2139 121.635C91.2139 122.74 91.0186 123.57 90.6279 124.125C90.2412 124.676 89.6592 124.951 88.8818 124.951C87.9053 124.951 87.249 124.584 86.9131 123.849H86.8838C86.8994 123.877 86.9072 124.209 86.9072 124.845V127.324H85.8525V119.789C85.8525 119.465 85.8486 119.195 85.8408 118.98C85.8369 118.761 85.8291 118.599 85.8174 118.494H86.8369C86.8408 118.51 86.8467 118.586 86.8545 118.722C86.8662 118.859 86.876 119.008 86.8838 119.168C86.8916 119.324 86.8955 119.439 86.8955 119.513H86.9189C87.1064 119.123 87.3545 118.838 87.6631 118.658C87.9717 118.474 88.3779 118.383 88.8818 118.383C89.6631 118.383 90.2471 118.644 90.6338 119.168C91.0205 119.691 91.2139 120.513 91.2139 121.635ZM90.1064 121.658C90.1064 120.775 89.9873 120.144 89.749 119.765C89.5107 119.386 89.1318 119.197 88.6123 119.197C88.0342 119.197 87.6045 119.398 87.3232 119.801C87.0459 120.199 86.9072 120.845 86.9072 121.74C86.9072 122.572 87.04 123.185 87.3057 123.58C87.5713 123.974 88.0029 124.172 88.6006 124.172C89.124 124.172 89.5049 123.98 89.7432 123.597C89.9854 123.211 90.1064 122.564 90.1064 121.658ZM97.8936 121.658C97.8936 122.767 97.6494 123.594 97.1611 124.136C96.6729 124.679 95.9639 124.951 95.0342 124.951C94.1084 124.951 93.4092 124.67 92.9365 124.107C92.4639 123.541 92.2275 122.724 92.2275 121.658C92.2275 120.564 92.4639 119.744 92.9365 119.197C93.4131 118.65 94.124 118.377 95.0693 118.377C96.0381 118.377 96.751 118.644 97.208 119.179C97.665 119.711 97.8936 120.537 97.8936 121.658ZM96.7861 121.658C96.7861 120.783 96.6553 120.148 96.3936 119.754C96.1357 119.355 95.7002 119.156 95.0869 119.156C94.4697 119.156 94.0225 119.359 93.7451 119.765C93.4717 120.168 93.335 120.799 93.335 121.658C93.335 122.494 93.4697 123.123 93.7393 123.545C94.0127 123.963 94.4404 124.172 95.0225 124.172C95.6553 124.172 96.1064 123.969 96.376 123.562C96.6494 123.156 96.7861 122.521 96.7861 121.658ZM104.573 121.635C104.573 122.74 104.378 123.57 103.987 124.125C103.601 124.676 103.019 124.951 102.241 124.951C101.265 124.951 100.608 124.584 100.272 123.849H100.243C100.259 123.877 100.267 124.209 100.267 124.845V127.324H99.2119V119.789C99.2119 119.465 99.208 119.195 99.2002 118.98C99.1963 118.761 99.1885 118.599 99.1768 118.494H100.196C100.2 118.51 100.206 118.586 100.214 118.722C100.226 118.859 100.235 119.008 100.243 119.168C100.251 119.324 100.255 119.439 100.255 119.513H100.278C100.466 119.123 100.714 118.838 101.022 118.658C101.331 118.474 101.737 118.383 102.241 118.383C103.022 118.383 103.606 118.644 103.993 119.168C104.38 119.691 104.573 120.513 104.573 121.635ZM103.466 121.658C103.466 120.775 103.347 120.144 103.108 119.765C102.87 119.386 102.491 119.197 101.972 119.197C101.394 119.197 100.964 119.398 100.683 119.801C100.405 120.199 100.267 120.845 100.267 121.74C100.267 122.572 100.399 123.185 100.665 123.58C100.931 123.974 101.362 124.172 101.96 124.172C102.483 124.172 102.864 123.98 103.103 123.597C103.345 123.211 103.466 122.564 103.466 121.658ZM109.899 123.75C109.657 124.187 109.376 124.498 109.056 124.681C108.739 124.861 108.345 124.951 107.872 124.951C107.177 124.951 106.667 124.779 106.343 124.435C106.022 124.088 105.862 123.515 105.862 122.719V118.494H106.923V122.513C106.923 123.146 107.021 123.576 107.216 123.802C107.415 124.025 107.753 124.136 108.229 124.136C108.737 124.136 109.138 123.963 109.431 123.615C109.724 123.267 109.87 122.785 109.87 122.168V118.494H110.925V123.48C110.925 123.847 110.927 124.144 110.931 124.371C110.938 124.597 110.948 124.752 110.96 124.834H109.964C109.96 124.814 109.952 124.722 109.94 124.558C109.933 124.394 109.925 124.125 109.917 123.75H109.899ZM113.626 116.138V124.834H112.571V116.138H113.626ZM116.86 124.951C116.224 124.951 115.745 124.783 115.425 124.447C115.104 124.111 114.944 123.65 114.944 123.064C114.944 122.408 115.159 121.904 115.589 121.552C116.022 121.201 116.72 121.013 117.681 120.99L119.104 120.967V120.621C119.104 120.105 118.995 119.736 118.776 119.513C118.558 119.291 118.214 119.179 117.745 119.179C117.272 119.179 116.929 119.26 116.714 119.42C116.499 119.58 116.37 119.836 116.327 120.187L115.226 120.088C115.405 118.947 116.253 118.377 117.769 118.377C118.565 118.377 119.165 118.56 119.567 118.927C119.97 119.291 120.171 119.818 120.171 120.51V123.24C120.171 123.552 120.212 123.789 120.294 123.949C120.376 124.105 120.532 124.183 120.763 124.183C120.872 124.183 120.987 124.17 121.108 124.142V124.799C120.976 124.83 120.841 124.853 120.704 124.869C120.567 124.885 120.431 124.892 120.294 124.892C119.903 124.892 119.618 124.791 119.438 124.588C119.263 124.381 119.163 124.058 119.14 123.621H119.104C118.835 124.105 118.521 124.449 118.161 124.652C117.806 124.851 117.372 124.951 116.86 124.951ZM119.104 121.705L117.95 121.728C117.458 121.732 117.083 121.783 116.825 121.881C116.567 121.974 116.37 122.119 116.233 122.314C116.097 122.51 116.028 122.765 116.028 123.082C116.028 123.426 116.12 123.691 116.304 123.879C116.491 124.066 116.757 124.16 117.101 124.16C117.491 124.16 117.835 124.072 118.132 123.896C118.433 123.72 118.669 123.48 118.841 123.176C119.017 122.867 119.104 122.551 119.104 122.226V121.705ZM123.001 121.529V124.834H121.946V119.97C121.946 119.748 121.942 119.513 121.935 119.267C121.931 119.021 121.923 118.763 121.911 118.494H122.907C122.915 118.674 122.921 118.836 122.925 118.98C122.933 119.125 122.938 119.252 122.942 119.361C122.946 119.467 122.948 119.556 122.948 119.631C122.952 119.701 122.954 119.754 122.954 119.789H122.978C123.095 119.406 123.224 119.109 123.364 118.898C123.501 118.703 123.657 118.568 123.833 118.494C124.009 118.416 124.226 118.377 124.483 118.377C124.628 118.377 124.771 118.396 124.911 118.435V119.402C124.778 119.363 124.591 119.344 124.349 119.344C123.911 119.344 123.577 119.533 123.347 119.912C123.116 120.287 123.001 120.826 123.001 121.529ZM130.876 124.951C130.239 124.951 129.761 124.783 129.44 124.447C129.12 124.111 128.96 123.65 128.96 123.064C128.96 122.408 129.175 121.904 129.604 121.552C130.038 121.201 130.735 121.013 131.696 120.99L133.12 120.967V120.621C133.12 120.105 133.011 119.736 132.792 119.513C132.573 119.291 132.229 119.179 131.761 119.179C131.288 119.179 130.944 119.26 130.729 119.42C130.515 119.58 130.386 119.836 130.343 120.187L129.241 120.088C129.421 118.947 130.269 118.377 131.784 118.377C132.581 118.377 133.181 118.56 133.583 118.927C133.985 119.291 134.187 119.818 134.187 120.51V123.24C134.187 123.552 134.228 123.789 134.31 123.949C134.392 124.105 134.548 124.183 134.778 124.183C134.888 124.183 135.003 124.17 135.124 124.142V124.799C134.991 124.83 134.856 124.853 134.72 124.869C134.583 124.885 134.446 124.892 134.31 124.892C133.919 124.892 133.634 124.791 133.454 124.588C133.278 124.381 133.179 124.058 133.155 123.621H133.12C132.851 124.105 132.536 124.449 132.177 124.652C131.821 124.851 131.388 124.951 130.876 124.951ZM133.12 121.705L131.966 121.728C131.474 121.732 131.099 121.783 130.841 121.881C130.583 121.974 130.386 122.119 130.249 122.314C130.112 122.51 130.044 122.765 130.044 123.082C130.044 123.426 130.136 123.691 130.319 123.879C130.507 124.066 130.772 124.16 131.116 124.16C131.507 124.16 131.851 124.072 132.147 123.896C132.448 123.72 132.685 123.48 132.856 123.176C133.032 122.867 133.12 122.551 133.12 122.226V121.705ZM141.3 121.635C141.3 122.74 141.104 123.57 140.714 124.125C140.327 124.676 139.745 124.951 138.968 124.951C137.991 124.951 137.335 124.584 136.999 123.849H136.97C136.985 123.877 136.993 124.209 136.993 124.845V127.324H135.938V119.789C135.938 119.465 135.935 119.195 135.927 118.98C135.923 118.761 135.915 118.599 135.903 118.494H136.923C136.927 118.51 136.933 118.586 136.94 118.722C136.952 118.859 136.962 119.008 136.97 119.168C136.978 119.324 136.981 119.439 136.981 119.513H137.005C137.192 119.123 137.44 118.838 137.749 118.658C138.058 118.474 138.464 118.383 138.968 118.383C139.749 118.383 140.333 118.644 140.72 119.168C141.106 119.691 141.3 120.513 141.3 121.635ZM140.192 121.658C140.192 120.775 140.073 120.144 139.835 119.765C139.597 119.386 139.218 119.197 138.698 119.197C138.12 119.197 137.69 119.398 137.409 119.801C137.132 120.199 136.993 120.845 136.993 121.74C136.993 122.572 137.126 123.185 137.392 123.58C137.657 123.974 138.089 124.172 138.687 124.172C139.21 124.172 139.591 123.98 139.829 123.597C140.071 123.211 140.192 122.564 140.192 121.658ZM147.979 121.635C147.979 122.74 147.784 123.57 147.394 124.125C147.007 124.676 146.425 124.951 145.647 124.951C144.671 124.951 144.015 124.584 143.679 123.849H143.649C143.665 123.877 143.673 124.209 143.673 124.845V127.324H142.618V119.789C142.618 119.465 142.614 119.195 142.606 118.98C142.603 118.761 142.595 118.599 142.583 118.494H143.603C143.606 118.51 143.612 118.586 143.62 118.722C143.632 118.859 143.642 119.008 143.649 119.168C143.657 119.324 143.661 119.439 143.661 119.513H143.685C143.872 119.123 144.12 118.838 144.429 118.658C144.737 118.474 145.144 118.383 145.647 118.383C146.429 118.383 147.013 118.644 147.399 119.168C147.786 119.691 147.979 120.513 147.979 121.635ZM146.872 121.658C146.872 120.775 146.753 120.144 146.515 119.765C146.276 119.386 145.897 119.197 145.378 119.197C144.8 119.197 144.37 119.398 144.089 119.801C143.812 120.199 143.673 120.845 143.673 121.74C143.673 122.572 143.806 123.185 144.071 123.58C144.337 123.974 144.769 124.172 145.366 124.172C145.89 124.172 146.271 123.98 146.509 123.597C146.751 123.211 146.872 122.564 146.872 121.658ZM154.056 123.082C154.056 123.679 153.829 124.14 153.376 124.465C152.927 124.789 152.296 124.951 151.483 124.951C150.694 124.951 150.085 124.822 149.655 124.564C149.229 124.302 148.952 123.896 148.823 123.345L149.755 123.164C149.845 123.504 150.03 123.754 150.312 123.914C150.593 124.07 150.983 124.148 151.483 124.148C152.019 124.148 152.409 124.066 152.655 123.902C152.905 123.738 153.03 123.492 153.03 123.164C153.03 122.914 152.944 122.711 152.772 122.554C152.601 122.398 152.323 122.269 151.94 122.168C151.487 122.047 151.126 121.947 150.856 121.869C150.591 121.791 150.386 121.724 150.241 121.67C150.097 121.611 149.981 121.556 149.896 121.506C149.638 121.357 149.437 121.176 149.292 120.961C149.147 120.746 149.075 120.482 149.075 120.17C149.075 119.592 149.28 119.152 149.69 118.851C150.104 118.547 150.706 118.394 151.495 118.394C152.194 118.394 152.749 118.517 153.159 118.763C153.573 119.01 153.835 119.404 153.944 119.947L152.995 120.064C152.937 119.783 152.778 119.568 152.521 119.42C152.267 119.267 151.925 119.191 151.495 119.191C151.019 119.191 150.667 119.263 150.44 119.408C150.214 119.552 150.101 119.771 150.101 120.064C150.101 120.279 150.165 120.457 150.294 120.597C150.423 120.734 150.669 120.847 151.032 120.937C151.521 121.054 151.985 121.183 152.427 121.324C152.868 121.461 153.185 121.597 153.376 121.734C153.599 121.894 153.767 122.084 153.88 122.302C153.997 122.517 154.056 122.777 154.056 123.082ZM156.745 124.535C156.745 124.949 156.708 125.295 156.634 125.572C156.56 125.849 156.444 126.115 156.288 126.369H155.567C155.751 126.103 155.888 125.842 155.978 125.584C156.071 125.33 156.118 125.08 156.118 124.834H155.603V123.551H156.745V124.535ZM52.2256 142.951C51.3389 142.951 50.6611 142.672 50.1924 142.113C49.7275 141.551 49.4951 140.732 49.4951 139.658C49.4951 138.592 49.7295 137.779 50.1982 137.22C50.667 136.658 51.3389 136.377 52.2139 136.377C52.8623 136.377 53.3994 136.545 53.8252 136.881C54.2549 137.217 54.5244 137.679 54.6338 138.269L53.5498 138.351C53.4951 138 53.3564 137.72 53.1338 137.513C52.9111 137.306 52.5947 137.203 52.1846 137.203C51.626 137.203 51.2217 137.388 50.9717 137.76C50.7217 138.131 50.5967 138.756 50.5967 139.635C50.5967 140.478 50.7295 141.103 50.9951 141.51C51.2607 141.916 51.6611 142.119 52.1963 142.119C52.5713 142.119 52.8838 142.017 53.1338 141.814C53.3877 141.611 53.5439 141.299 53.6025 140.877L54.6689 140.947C54.6143 141.353 54.4775 141.707 54.2588 142.008C54.0439 142.308 53.7627 142.541 53.415 142.705C53.0713 142.869 52.6748 142.951 52.2256 142.951ZM56.8486 134.138V142.834H55.7939V134.138H56.8486ZM63.8271 139.658C63.8271 140.767 63.583 141.594 63.0947 142.136C62.6064 142.679 61.8975 142.951 60.9678 142.951C60.042 142.951 59.3428 142.67 58.8701 142.107C58.3975 141.541 58.1611 140.724 58.1611 139.658C58.1611 138.564 58.3975 137.744 58.8701 137.197C59.3467 136.65 60.0576 136.377 61.0029 136.377C61.9717 136.377 62.6846 136.644 63.1416 137.179C63.5986 137.711 63.8271 138.537 63.8271 139.658ZM62.7197 139.658C62.7197 138.783 62.5889 138.148 62.3271 137.754C62.0693 137.355 61.6338 137.156 61.0205 137.156C60.4033 137.156 59.9561 137.359 59.6787 137.765C59.4053 138.168 59.2686 138.799 59.2686 139.658C59.2686 140.494 59.4033 141.123 59.6729 141.545C59.9463 141.963 60.374 142.172 60.9561 142.172C61.5889 142.172 62.04 141.969 62.3096 141.562C62.583 141.156 62.7197 140.521 62.7197 139.658ZM69.1533 141.75C68.9111 142.187 68.6299 142.498 68.3096 142.681C67.9932 142.861 67.5986 142.951 67.126 142.951C66.4307 142.951 65.9209 142.779 65.5967 142.435C65.2764 142.088 65.1162 141.515 65.1162 140.719V136.494H66.1768V140.513C66.1768 141.146 66.2744 141.576 66.4697 141.802C66.6689 142.025 67.0068 142.136 67.4834 142.136C67.9912 142.136 68.3916 141.963 68.6846 141.615C68.9775 141.267 69.124 140.785 69.124 140.168V136.494H70.1787V141.48C70.1787 141.847 70.1807 142.144 70.1846 142.371C70.1924 142.597 70.2021 142.752 70.2139 142.834H69.2178C69.2139 142.814 69.2061 142.722 69.1943 142.558C69.1865 142.394 69.1787 142.125 69.1709 141.75H69.1533ZM75.9092 142.834C75.9014 142.791 75.8916 142.711 75.8799 142.594C75.8721 142.472 75.8643 142.34 75.8564 142.195C75.8525 142.051 75.8506 141.924 75.8506 141.814H75.8271C75.6318 142.22 75.3721 142.511 75.0479 142.687C74.7275 142.863 74.3291 142.951 73.8525 142.951C73.0518 142.951 72.4619 142.681 72.083 142.142C71.708 141.603 71.5205 140.787 71.5205 139.693C71.5205 138.588 71.7139 137.76 72.1006 137.209C72.4912 136.654 73.0752 136.377 73.8525 136.377C74.333 136.377 74.7334 136.465 75.0537 136.64C75.374 136.816 75.6318 137.095 75.8271 137.478H75.8389L75.8271 136.769V134.138H76.8818V141.527C76.8818 141.859 76.8838 142.135 76.8877 142.353C76.8955 142.568 76.9053 142.728 76.917 142.834H75.9092ZM72.6279 139.658C72.6279 140.545 72.7451 141.179 72.9795 141.562C73.2139 141.945 73.5947 142.136 74.1221 142.136C74.7197 142.136 75.1533 141.929 75.4229 141.515C75.6924 141.101 75.8271 140.459 75.8271 139.588C75.8271 138.748 75.6924 138.133 75.4229 137.742C75.1533 137.351 74.7236 137.156 74.1338 137.156C73.6025 137.156 73.2178 137.353 72.9795 137.748C72.7451 138.138 72.6279 138.775 72.6279 139.658ZM83.4619 142.951C82.8252 142.951 82.3467 142.783 82.0264 142.447C81.7061 142.111 81.5459 141.65 81.5459 141.064C81.5459 140.408 81.7607 139.904 82.1904 139.552C82.624 139.201 83.3213 139.013 84.2822 138.99L85.7061 138.967V138.621C85.7061 138.105 85.5967 137.736 85.3779 137.513C85.1592 137.291 84.8154 137.179 84.3467 137.179C83.874 137.179 83.5303 137.26 83.3154 137.42C83.1006 137.58 82.9717 137.836 82.9287 138.187L81.8271 138.088C82.0068 136.947 82.8545 136.377 84.3701 136.377C85.167 136.377 85.7666 136.56 86.1689 136.927C86.5713 137.291 86.7725 137.818 86.7725 138.51V141.24C86.7725 141.552 86.8135 141.789 86.8955 141.949C86.9775 142.105 87.1338 142.183 87.3643 142.183C87.4736 142.183 87.5889 142.17 87.71 142.142V142.799C87.5771 142.83 87.4424 142.853 87.3057 142.869C87.1689 142.885 87.0322 142.892 86.8955 142.892C86.5049 142.892 86.2197 142.791 86.04 142.588C85.8643 142.381 85.7646 142.058 85.7412 141.621H85.7061C85.4365 142.105 85.1221 142.449 84.7627 142.652C84.4072 142.851 83.9736 142.951 83.4619 142.951ZM85.7061 139.705L84.5518 139.728C84.0596 139.732 83.6846 139.783 83.4268 139.881C83.1689 139.974 82.9717 140.119 82.835 140.314C82.6982 140.51 82.6299 140.765 82.6299 141.082C82.6299 141.426 82.7217 141.691 82.9053 141.879C83.0928 142.066 83.3584 142.16 83.7021 142.16C84.0928 142.16 84.4365 142.072 84.7334 141.896C85.0342 141.72 85.2705 141.48 85.4424 141.176C85.6182 140.867 85.7061 140.551 85.7061 140.226V139.705ZM89.6025 139.16V142.834H88.5479V137.847C88.5479 137.476 88.5439 137.179 88.5361 136.957C88.5322 136.73 88.5244 136.576 88.5127 136.494H89.5088C89.5166 136.568 89.5225 136.662 89.5264 136.775C89.5342 136.888 89.54 137.013 89.5439 137.15C89.5479 137.287 89.5518 137.429 89.5557 137.578H89.5732C89.8154 137.14 90.0947 136.832 90.4111 136.652C90.7314 136.469 91.1279 136.377 91.6006 136.377C92.2959 136.377 92.8037 136.554 93.124 136.91C93.4482 137.265 93.6104 137.832 93.6104 138.609V142.834H92.5498V138.814C92.5498 138.209 92.4521 137.787 92.2568 137.549C92.0615 137.31 91.7236 137.191 91.2432 137.191C90.7354 137.191 90.335 137.365 90.042 137.713C89.749 138.06 89.6025 138.543 89.6025 139.16ZM99.2881 142.834C99.2803 142.791 99.2705 142.711 99.2588 142.594C99.251 142.472 99.2432 142.34 99.2354 142.195C99.2314 142.051 99.2295 141.924 99.2295 141.814H99.2061C99.0107 142.22 98.751 142.511 98.4268 142.687C98.1064 142.863 97.708 142.951 97.2314 142.951C96.4307 142.951 95.8408 142.681 95.4619 142.142C95.0869 141.603 94.8994 140.787 94.8994 139.693C94.8994 138.588 95.0928 137.76 95.4795 137.209C95.8701 136.654 96.4541 136.377 97.2314 136.377C97.7119 136.377 98.1123 136.465 98.4326 136.64C98.7529 136.816 99.0107 137.095 99.2061 137.478H99.2178L99.2061 136.769V134.138H100.261V141.527C100.261 141.859 100.263 142.135 100.267 142.353C100.274 142.568 100.284 142.728 100.296 142.834H99.2881ZM96.0068 139.658C96.0068 140.545 96.124 141.179 96.3584 141.562C96.5928 141.945 96.9736 142.136 97.501 142.136C98.0986 142.136 98.5322 141.929 98.8018 141.515C99.0713 141.101 99.2061 140.459 99.2061 139.588C99.2061 138.748 99.0713 138.133 98.8018 137.742C98.5322 137.351 98.1025 137.156 97.5127 137.156C96.9814 137.156 96.5967 137.353 96.3584 137.748C96.124 138.138 96.0068 138.775 96.0068 139.658ZM110.585 139.658C110.585 140.767 110.341 141.594 109.853 142.136C109.364 142.679 108.655 142.951 107.726 142.951C106.8 142.951 106.101 142.67 105.628 142.107C105.155 141.541 104.919 140.724 104.919 139.658C104.919 138.564 105.155 137.744 105.628 137.197C106.104 136.65 106.815 136.377 107.761 136.377C108.729 136.377 109.442 136.644 109.899 137.179C110.356 137.711 110.585 138.537 110.585 139.658ZM109.478 139.658C109.478 138.783 109.347 138.148 109.085 137.754C108.827 137.355 108.392 137.156 107.778 137.156C107.161 137.156 106.714 137.359 106.437 137.765C106.163 138.168 106.026 138.799 106.026 139.658C106.026 140.494 106.161 141.123 106.431 141.545C106.704 141.963 107.132 142.172 107.714 142.172C108.347 142.172 108.798 141.969 109.067 141.562C109.341 141.156 109.478 140.521 109.478 139.658ZM112.981 139.16V142.834H111.927V137.847C111.927 137.476 111.923 137.179 111.915 136.957C111.911 136.73 111.903 136.576 111.892 136.494H112.888C112.896 136.568 112.901 136.662 112.905 136.775C112.913 136.888 112.919 137.013 112.923 137.15C112.927 137.287 112.931 137.429 112.935 137.578H112.952C113.194 137.14 113.474 136.832 113.79 136.652C114.11 136.469 114.507 136.377 114.979 136.377C115.675 136.377 116.183 136.554 116.503 136.91C116.827 137.265 116.989 137.832 116.989 138.609V142.834H115.929V138.814C115.929 138.209 115.831 137.787 115.636 137.549C115.44 137.31 115.103 137.191 114.622 137.191C114.114 137.191 113.714 137.365 113.421 137.713C113.128 138.06 112.981 138.543 112.981 139.16ZM123.944 139.635C123.944 140.74 123.749 141.57 123.358 142.125C122.972 142.676 122.39 142.951 121.612 142.951C120.636 142.951 119.979 142.584 119.644 141.849H119.614C119.63 141.877 119.638 142.209 119.638 142.845V145.324H118.583V137.789C118.583 137.465 118.579 137.195 118.571 136.98C118.567 136.761 118.56 136.599 118.548 136.494H119.567C119.571 136.51 119.577 136.586 119.585 136.722C119.597 136.859 119.606 137.008 119.614 137.168C119.622 137.324 119.626 137.439 119.626 137.513H119.649C119.837 137.123 120.085 136.838 120.394 136.658C120.702 136.474 121.108 136.383 121.612 136.383C122.394 136.383 122.978 136.644 123.364 137.168C123.751 137.691 123.944 138.513 123.944 139.635ZM122.837 139.658C122.837 138.775 122.718 138.144 122.479 137.765C122.241 137.386 121.862 137.197 121.343 137.197C120.765 137.197 120.335 137.398 120.054 137.801C119.776 138.199 119.638 138.845 119.638 139.74C119.638 140.572 119.771 141.185 120.036 141.58C120.302 141.974 120.733 142.172 121.331 142.172C121.854 142.172 122.235 141.98 122.474 141.597C122.716 141.211 122.837 140.564 122.837 139.658ZM126.341 139.529V142.834H125.286V137.97C125.286 137.748 125.282 137.513 125.274 137.267C125.271 137.021 125.263 136.763 125.251 136.494H126.247C126.255 136.674 126.261 136.836 126.265 136.98C126.272 137.125 126.278 137.252 126.282 137.361C126.286 137.467 126.288 137.556 126.288 137.631C126.292 137.701 126.294 137.754 126.294 137.789H126.317C126.435 137.406 126.563 137.109 126.704 136.898C126.841 136.703 126.997 136.568 127.173 136.494C127.349 136.416 127.565 136.377 127.823 136.377C127.968 136.377 128.11 136.396 128.251 136.435V137.402C128.118 137.363 127.931 137.344 127.688 137.344C127.251 137.344 126.917 137.533 126.687 137.912C126.456 138.287 126.341 138.826 126.341 139.529ZM130.067 139.886C130.067 140.613 130.218 141.174 130.519 141.568C130.819 141.963 131.259 142.16 131.837 142.16C132.294 142.16 132.659 142.068 132.933 141.885C133.21 141.701 133.397 141.469 133.495 141.187L134.421 141.451C134.042 142.451 133.181 142.951 131.837 142.951C130.899 142.951 130.185 142.672 129.692 142.113C129.204 141.554 128.96 140.724 128.96 139.623C128.96 138.576 129.204 137.773 129.692 137.215C130.185 136.656 130.886 136.377 131.796 136.377C132.729 136.377 133.429 136.658 133.894 137.22C134.358 137.783 134.591 138.625 134.591 139.746V139.886H130.067ZM133.501 139.078C133.442 138.41 133.272 137.924 132.991 137.619C132.71 137.31 132.306 137.156 131.778 137.156C131.267 137.156 130.86 137.328 130.56 137.672C130.263 138.011 130.103 138.48 130.079 139.078H133.501ZM137.011 139.16V142.834H135.962V137.847C135.962 137.476 135.958 137.179 135.95 136.957C135.946 136.73 135.938 136.576 135.927 136.494H136.923C136.931 136.58 136.938 136.685 136.946 136.81C136.954 136.935 136.96 137.066 136.964 137.203C136.968 137.336 136.97 137.461 136.97 137.578H136.987C137.214 137.129 137.474 136.816 137.767 136.64C138.06 136.465 138.417 136.377 138.839 136.377C139.319 136.377 139.698 136.472 139.976 136.664C140.257 136.855 140.452 137.16 140.562 137.578H140.579C140.798 137.152 141.062 136.845 141.37 136.658C141.683 136.47 142.06 136.377 142.501 136.377C143.142 136.377 143.606 136.551 143.896 136.898C144.188 137.246 144.335 137.816 144.335 138.609V142.834H143.292V138.814C143.292 138.201 143.208 137.777 143.04 137.543C142.872 137.308 142.569 137.191 142.132 137.191C141.671 137.191 141.312 137.363 141.054 137.707C140.8 138.047 140.673 138.531 140.673 139.16V142.834H139.63V138.814C139.63 138.201 139.546 137.777 139.378 137.543C139.21 137.308 138.907 137.191 138.47 137.191C138.021 137.191 137.665 137.363 137.403 137.707C137.142 138.051 137.011 138.535 137.011 139.16ZM146.983 134.138V135.146H145.929V134.138H146.983ZM146.983 136.494V142.834H145.929V136.494H146.983ZM153.364 141.082C153.364 141.679 153.138 142.14 152.685 142.465C152.235 142.789 151.604 142.951 150.792 142.951C150.003 142.951 149.394 142.822 148.964 142.564C148.538 142.302 148.261 141.896 148.132 141.345L149.063 141.164C149.153 141.504 149.339 141.754 149.62 141.914C149.901 142.07 150.292 142.148 150.792 142.148C151.327 142.148 151.718 142.066 151.964 141.902C152.214 141.738 152.339 141.492 152.339 141.164C152.339 140.914 152.253 140.711 152.081 140.554C151.909 140.398 151.632 140.269 151.249 140.168C150.796 140.047 150.435 139.947 150.165 139.869C149.899 139.791 149.694 139.724 149.55 139.67C149.405 139.611 149.29 139.556 149.204 139.506C148.946 139.357 148.745 139.176 148.601 138.961C148.456 138.746 148.384 138.482 148.384 138.17C148.384 137.592 148.589 137.152 148.999 136.851C149.413 136.547 150.015 136.394 150.804 136.394C151.503 136.394 152.058 136.517 152.468 136.763C152.882 137.01 153.144 137.404 153.253 137.947L152.304 138.064C152.245 137.783 152.087 137.568 151.829 137.42C151.575 137.267 151.233 137.191 150.804 137.191C150.327 137.191 149.976 137.263 149.749 137.408C149.522 137.552 149.409 137.771 149.409 138.064C149.409 138.279 149.474 138.457 149.603 138.597C149.731 138.734 149.978 138.847 150.341 138.937C150.829 139.054 151.294 139.183 151.735 139.324C152.177 139.461 152.493 139.597 152.685 139.734C152.907 139.894 153.075 140.084 153.188 140.302C153.306 140.517 153.364 140.777 153.364 141.082ZM155.415 139.886C155.415 140.613 155.565 141.174 155.866 141.568C156.167 141.963 156.606 142.16 157.185 142.16C157.642 142.16 158.007 142.068 158.28 141.885C158.558 141.701 158.745 141.469 158.843 141.187L159.769 141.451C159.39 142.451 158.528 142.951 157.185 142.951C156.247 142.951 155.532 142.672 155.04 142.113C154.552 141.554 154.308 140.724 154.308 139.623C154.308 138.576 154.552 137.773 155.04 137.215C155.532 136.656 156.233 136.377 157.144 136.377C158.077 136.377 158.776 136.658 159.241 137.22C159.706 137.783 159.938 138.625 159.938 139.746V139.886H155.415ZM158.849 139.078C158.79 138.41 158.62 137.924 158.339 137.619C158.058 137.31 157.653 137.156 157.126 137.156C156.614 137.156 156.208 137.328 155.907 137.672C155.61 138.011 155.45 138.48 155.427 139.078H158.849ZM166.056 141.551V142.834H164.913V141.551H166.056Z" fill="white"/>
    <path d="M86.3232 44.8298V49.8337H84.7881V41.5779H87.1025L88.5791 46.1951C88.6455 46.4529 88.7139 46.7126 88.7842 46.9744C88.8545 47.2322 88.9229 47.49 88.9893 47.7478C89.0322 47.5994 89.0732 47.4529 89.1123 47.3083C89.1514 47.1599 89.1904 47.0115 89.2295 46.863C89.2725 46.7146 89.3154 46.5681 89.3584 46.4236L90.876 41.5779H93.1787V49.8337H91.6436V44.8298C91.6436 44.7166 91.6475 44.49 91.6553 44.1501C91.667 43.8064 91.6826 43.4333 91.7021 43.031C91.5654 43.5544 91.4443 43.9998 91.3389 44.3669C91.2373 44.7341 91.1533 45.0212 91.0869 45.2283L89.5986 49.8337H88.3682L86.8799 45.2283L86.2529 43.031C86.2764 43.4841 86.2939 43.8611 86.3057 44.1619C86.3174 44.4587 86.3232 44.6814 86.3232 44.8298ZM96.4042 49.9509C95.7909 49.9509 95.3124 49.7849 94.9686 49.4529C94.6249 49.1169 94.453 48.6462 94.453 48.0408C94.453 47.3845 94.6659 46.8865 95.0917 46.5466C95.5214 46.2068 96.1425 46.0291 96.955 46.0134L98.3202 45.99V45.6677C98.3202 45.2537 98.2479 44.947 98.1034 44.7478C97.9589 44.5447 97.7225 44.4431 97.3944 44.4431C97.0897 44.4431 96.8651 44.5134 96.7206 44.6541C96.58 44.7908 96.4921 45.0193 96.4569 45.3396L94.7401 45.2576C94.955 44.0037 95.8632 43.3767 97.4647 43.3767C98.2655 43.3767 98.8827 43.574 99.3163 43.9685C99.7499 44.363 99.9667 44.9236 99.9667 45.6501V47.9587C99.9667 48.3142 100.006 48.5603 100.084 48.697C100.166 48.8298 100.301 48.8962 100.488 48.8962C100.613 48.8962 100.734 48.8845 100.851 48.8611V49.7517C100.648 49.8025 100.474 49.8396 100.33 49.863C100.185 49.8904 100.008 49.9041 99.7968 49.9041C99.3827 49.9041 99.0761 49.8025 98.8768 49.5994C98.6815 49.3962 98.5643 49.0974 98.5253 48.7029H98.4901C98.2596 49.1169 97.9706 49.4294 97.6229 49.6404C97.2753 49.8474 96.869 49.9509 96.4042 49.9509ZM98.3202 46.8982L97.4764 46.9099C97.0897 46.9294 96.8182 46.9705 96.662 47.033C96.5018 47.1033 96.3788 47.2087 96.2929 47.3494C96.2108 47.49 96.1698 47.6775 96.1698 47.9119C96.1698 48.2126 96.2382 48.4373 96.3749 48.5857C96.5155 48.7302 96.7011 48.8025 96.9315 48.8025C97.1893 48.8025 97.4257 48.7322 97.6405 48.5916C97.8514 48.4509 98.0175 48.2576 98.1386 48.0115C98.2596 47.7615 98.3202 47.4978 98.3202 47.2205V46.8982ZM103.386 46.4353V49.8337H101.739V44.9119C101.739 44.572 101.733 44.2947 101.721 44.0798C101.714 43.8611 101.704 43.6658 101.692 43.4939H103.262C103.27 43.5408 103.28 43.6521 103.292 43.8279C103.303 43.9998 103.313 44.1775 103.321 44.3611C103.333 44.5408 103.339 44.6716 103.339 44.7537H103.362C103.585 44.2693 103.864 43.9177 104.2 43.699C104.536 43.4802 104.936 43.3708 105.401 43.3708C106.073 43.3708 106.589 43.5779 106.948 43.9919C107.307 44.406 107.487 45.0115 107.487 45.8083V49.8337H105.846V46.2771C105.846 45.7185 105.753 45.3005 105.565 45.0232C105.378 44.7458 105.094 44.6072 104.716 44.6072C104.317 44.6072 103.995 44.7791 103.749 45.1228C103.507 45.4626 103.386 45.9001 103.386 46.4353ZM113.302 49.8337C113.295 49.7947 113.283 49.7126 113.267 49.5876C113.252 49.4626 113.238 49.3259 113.226 49.1775C113.218 49.0291 113.214 48.9041 113.214 48.8025H113.191C113.011 49.1853 112.754 49.4724 112.418 49.6638C112.082 49.8552 111.664 49.9509 111.164 49.9509C110.425 49.9509 109.855 49.6638 109.453 49.0896C109.05 48.5115 108.849 47.7048 108.849 46.6697C108.849 45.6189 109.06 44.8083 109.482 44.238C109.908 43.6638 110.509 43.3767 111.287 43.3767C111.736 43.3767 112.123 43.4705 112.447 43.658C112.775 43.8455 113.027 44.1248 113.203 44.4958H113.214L113.203 43.4529V41.1384H114.849V48.4509C114.849 48.6462 114.853 48.8591 114.861 49.0896C114.869 49.3201 114.881 49.5681 114.896 49.8337H113.302ZM110.566 46.6697C110.566 47.3884 110.673 47.9275 110.888 48.2869C111.107 48.6462 111.431 48.8259 111.861 48.8259C112.295 48.8259 112.631 48.6365 112.869 48.2576C113.107 47.8748 113.226 47.3318 113.226 46.6287C113.226 45.9451 113.111 45.4197 112.881 45.0525C112.654 44.6814 112.318 44.4958 111.873 44.4958C111.431 44.4958 111.103 44.6755 110.888 45.0349C110.673 45.3904 110.566 45.9353 110.566 46.6697ZM117.471 52.324C117.069 52.324 116.723 52.2986 116.434 52.2478V51.0759C116.653 51.1072 116.842 51.1228 117.002 51.1228C117.385 51.1228 117.67 51.0193 117.858 50.8123C118.049 50.6052 118.235 50.2576 118.415 49.7693L115.907 43.4939H117.647L118.643 46.4646C118.721 46.6794 118.809 46.949 118.907 47.2732C119.004 47.5974 119.114 47.9802 119.235 48.4216C119.325 48.0623 119.411 47.7302 119.493 47.4255C119.575 47.1208 119.665 46.8083 119.762 46.488L120.7 43.4939H122.422L119.915 50.1677C119.813 50.4373 119.706 50.6755 119.592 50.8826C119.479 51.0896 119.364 51.2732 119.247 51.4333C119.008 51.7576 118.749 51.9861 118.467 52.1189C118.186 52.2556 117.854 52.324 117.471 52.324ZM128.853 47.1326C128.853 48.0115 128.607 48.7009 128.115 49.2009C127.622 49.7009 126.943 49.9509 126.076 49.9509C125.103 49.9509 124.355 49.6111 123.831 48.9314C123.312 48.2478 123.052 47.2361 123.052 45.8962C123.052 44.4236 123.316 43.3162 123.843 42.574C124.374 41.8279 125.132 41.4548 126.117 41.4548C126.816 41.4548 127.367 41.6091 127.769 41.9177C128.175 42.2263 128.462 42.7048 128.63 43.3533L127.078 43.5701C126.933 43.0271 126.601 42.7556 126.081 42.7556C125.64 42.7556 125.292 42.9763 125.038 43.4177C124.788 43.8591 124.663 44.5291 124.663 45.4275C124.839 45.1345 125.083 44.9099 125.396 44.7537C125.708 44.5974 126.062 44.5193 126.456 44.5193C127.195 44.5193 127.779 44.7537 128.208 45.2224C128.638 45.6912 128.853 46.3279 128.853 47.1326ZM127.201 47.1794C127.201 46.7107 127.091 46.3533 126.872 46.1072C126.658 45.8572 126.361 45.7322 125.982 45.7322C125.619 45.7322 125.328 45.8494 125.109 46.0837C124.89 46.3142 124.781 46.6208 124.781 47.0037C124.781 47.324 124.831 47.6091 124.933 47.8591C125.038 48.1091 125.185 48.3064 125.372 48.4509C125.56 48.5955 125.777 48.6677 126.023 48.6677C126.394 48.6677 126.683 48.5369 126.89 48.2751C127.097 48.0095 127.201 47.6443 127.201 47.1794ZM135.606 48.4802V49.8337H129.828V48.6912C129.973 48.3748 130.157 48.0662 130.379 47.7654C130.602 47.4607 130.867 47.156 131.176 46.8513C131.489 46.5427 131.844 46.2263 132.242 45.9021C132.532 45.6677 132.778 45.4548 132.981 45.2634C133.184 45.0681 133.342 44.8943 133.455 44.7419C133.573 44.5896 133.66 44.4392 133.719 44.2908C133.778 44.1384 133.807 43.99 133.807 43.8455C133.807 43.4861 133.715 43.2166 133.532 43.0369C133.352 42.8572 133.082 42.7673 132.723 42.7673C132.371 42.7673 132.102 42.863 131.914 43.0544C131.731 43.2419 131.612 43.5251 131.557 43.9041L129.899 43.8103C129.992 43.0447 130.278 42.4607 130.754 42.0583C131.235 41.656 131.887 41.4548 132.711 41.4548C133.602 41.4548 134.285 41.658 134.762 42.0642C135.239 42.4705 135.477 43.0408 135.477 43.7751C135.477 44.1892 135.391 44.5603 135.219 44.8884C135.047 45.2166 134.828 45.5193 134.563 45.7966C134.344 46.0349 134.096 46.2615 133.819 46.4763C133.545 46.6912 133.28 46.9001 133.022 47.1033C132.748 47.322 132.498 47.5427 132.272 47.7654C132.049 47.988 131.883 48.2263 131.774 48.4802H135.606Z" fill="white"/>
    <path d="M89.5137 62.0891C89.5137 62.6399 89.313 63.0691 88.9116 63.3767C88.5103 63.6814 87.9521 63.8337 87.2373 63.8337H84.7236V57.6418H86.9736C87.7002 57.6418 88.2451 57.7678 88.6084 58.0198C88.9717 58.2688 89.1533 58.6438 89.1533 59.1448C89.1533 59.511 89.0508 59.8186 88.8457 60.0676C88.6406 60.3167 88.3506 60.4836 87.9756 60.5686C88.4678 60.6272 88.8472 60.7927 89.1138 61.0652C89.3804 61.3347 89.5137 61.676 89.5137 62.0891ZM88.3096 59.2458C88.3096 58.9119 88.1953 58.6731 87.9668 58.5295C87.7383 58.386 87.4072 58.3142 86.9736 58.3142H85.563V60.2742H86.9736C87.4219 60.2742 87.7559 60.1907 87.9756 60.0237C88.1982 59.8538 88.3096 59.5945 88.3096 59.2458ZM88.6655 62.0232C88.6655 61.2937 88.1528 60.929 87.1274 60.929H85.563V63.1614H87.1934C87.7061 63.1614 88.0796 63.0662 88.314 62.8757C88.5483 62.6853 88.6655 62.4011 88.6655 62.0232ZM91.4933 61.3552V63.8337H90.7023V60.1863C90.7023 60.0193 90.6994 59.8435 90.6935 59.6589C90.6906 59.4744 90.6847 59.281 90.6759 59.0789H91.423C91.4289 59.2136 91.4333 59.3352 91.4362 59.4436C91.4421 59.552 91.4464 59.6472 91.4494 59.7292C91.4523 59.8083 91.4538 59.8757 91.4538 59.9314C91.4567 59.9841 91.4582 60.0237 91.4582 60.05H91.4757C91.5636 59.7629 91.6603 59.5403 91.7658 59.3821C91.8683 59.2356 91.9855 59.1345 92.1173 59.0789C92.2492 59.0203 92.4118 58.991 92.6051 58.991C92.7135 58.991 92.8205 59.0056 92.9259 59.0349V59.76C92.8263 59.7307 92.6857 59.7161 92.5041 59.7161C92.1759 59.7161 91.9254 59.8582 91.7526 60.1423C91.5797 60.4236 91.4933 60.8279 91.4933 61.3552ZM94.9847 63.9216C94.5071 63.9216 94.1483 63.7957 93.908 63.5437C93.6678 63.2917 93.5477 62.946 93.5477 62.5066C93.5477 62.0144 93.7088 61.6365 94.0311 61.3728C94.3563 61.1091 94.8792 60.9685 95.5999 60.9509L96.6678 60.9333V60.6741C96.6678 60.2874 96.5858 60.0105 96.4217 59.8435C96.2576 59.6765 95.9998 59.593 95.6483 59.593C95.2938 59.593 95.036 59.6531 94.8748 59.7732C94.7137 59.8933 94.617 60.0852 94.5848 60.3489L93.7586 60.2742C93.8934 59.4187 94.5291 58.991 95.6658 58.991C96.2635 58.991 96.7132 59.1287 97.015 59.4041C97.3167 59.6765 97.4676 60.072 97.4676 60.5906V62.6384C97.4676 62.8728 97.4984 63.05 97.5599 63.1702C97.6214 63.2874 97.7386 63.3459 97.9114 63.3459C97.9935 63.3459 98.0799 63.3357 98.1707 63.3152V63.8074C98.0711 63.8308 97.97 63.8484 97.8675 63.8601C97.765 63.8718 97.6624 63.8777 97.5599 63.8777C97.2669 63.8777 97.053 63.8015 96.9183 63.6492C96.7864 63.4939 96.7117 63.2522 96.6942 62.9241H96.6678C96.4656 63.2874 96.2298 63.5452 95.9603 63.6975C95.6937 63.8469 95.3685 63.9216 94.9847 63.9216ZM96.6678 61.4871L95.8021 61.5046C95.4329 61.5076 95.1517 61.5457 94.9583 61.6189C94.765 61.6892 94.617 61.7976 94.5145 61.9441C94.4119 62.0906 94.3607 62.2825 94.3607 62.5198C94.3607 62.7776 94.4295 62.9768 94.5672 63.1174C94.7078 63.2581 94.9071 63.3284 95.1649 63.3284C95.4578 63.3284 95.7156 63.2625 95.9383 63.1306C96.1639 62.9988 96.3411 62.8186 96.47 62.5901C96.6019 62.3586 96.6678 62.1213 96.6678 61.8782V61.4871ZM99.6802 61.0784V63.8337H98.8891V60.094C98.8891 59.8157 98.8862 59.593 98.8804 59.426C98.8774 59.2561 98.8716 59.1404 98.8628 59.0789H99.6098C99.6157 59.1345 99.6201 59.2048 99.623 59.2898C99.6289 59.3748 99.6333 59.4685 99.6362 59.571C99.6391 59.6736 99.6421 59.7805 99.645 59.8918H99.6582C99.8398 59.5637 100.049 59.3323 100.287 59.1975C100.527 59.0598 100.824 58.991 101.179 58.991C101.7 58.991 102.081 59.1243 102.321 59.3909C102.564 59.6575 102.686 60.0823 102.686 60.6653V63.8337H101.891V60.8191C101.891 60.365 101.817 60.0486 101.671 59.8699C101.524 59.6912 101.271 59.6018 100.911 59.6018C100.53 59.6018 100.229 59.7322 100.01 59.9929C99.79 60.2537 99.6802 60.6155 99.6802 61.0784ZM107.034 63.8337C107.028 63.8015 107.021 63.7415 107.012 63.6536C107.006 63.5627 107.001 63.4631 106.995 63.3547C106.992 63.2463 106.99 63.1511 106.99 63.0691H106.973C106.826 63.3738 106.631 63.592 106.388 63.7239C106.148 63.8557 105.849 63.9216 105.492 63.9216C104.891 63.9216 104.449 63.7195 104.165 63.3152C103.883 62.9109 103.743 62.2986 103.743 61.4783C103.743 60.6492 103.888 60.0281 104.178 59.615C104.471 59.199 104.909 58.991 105.492 58.991C105.852 58.991 106.152 59.0569 106.393 59.1887C106.633 59.3206 106.826 59.53 106.973 59.8171H106.982L106.973 59.2854V57.3123H107.764V62.8538C107.764 63.1028 107.765 63.3093 107.768 63.4734C107.774 63.6345 107.781 63.7546 107.79 63.8337H107.034ZM104.573 61.4519C104.573 62.1169 104.661 62.593 104.837 62.8801C105.013 63.1672 105.298 63.3108 105.694 63.3108C106.142 63.3108 106.467 63.1555 106.67 62.845C106.872 62.5344 106.973 62.0525 106.973 61.3992C106.973 60.7693 106.872 60.3079 106.67 60.0149C106.467 59.7219 106.145 59.5754 105.703 59.5754C105.304 59.5754 105.016 59.7234 104.837 60.0193C104.661 60.3123 104.573 60.7898 104.573 61.4519ZM109.858 57.3123V58.0681H109.067V57.3123H109.858ZM109.858 59.0789V63.8337H109.067V59.0789H109.858ZM111.974 61.0784V63.8337H111.183V60.094C111.183 59.8157 111.18 59.593 111.174 59.426C111.171 59.2561 111.165 59.1404 111.156 59.0789H111.903C111.909 59.1345 111.914 59.2048 111.916 59.2898C111.922 59.3748 111.927 59.4685 111.93 59.571C111.933 59.6736 111.936 59.7805 111.938 59.8918H111.952C112.133 59.5637 112.343 59.3323 112.58 59.1975C112.82 59.0598 113.118 58.991 113.472 58.991C113.994 58.991 114.374 59.1243 114.615 59.3909C114.858 59.6575 114.979 60.0823 114.979 60.6653V63.8337H114.184V60.8191C114.184 60.365 114.111 60.0486 113.964 59.8699C113.818 59.6912 113.564 59.6018 113.204 59.6018C112.823 59.6018 112.523 59.7322 112.303 59.9929C112.083 60.2537 111.974 60.6155 111.974 61.0784ZM118.067 65.7014C117.548 65.7014 117.135 65.5989 116.827 65.3938C116.52 65.1917 116.322 64.9031 116.234 64.5281L117.029 64.4138C117.082 64.6335 117.198 64.802 117.377 64.9192C117.558 65.0393 117.796 65.0994 118.088 65.0994C118.481 65.0994 118.776 64.9836 118.972 64.7522C119.171 64.5208 119.271 64.175 119.271 63.7151V62.9504H119.262C119.112 63.2551 118.907 63.4851 118.647 63.6404C118.386 63.7927 118.081 63.8689 117.733 63.8689C117.15 63.8689 116.72 63.6755 116.445 63.2888C116.172 62.9021 116.036 62.2942 116.036 61.4651C116.036 60.6243 116.183 60.0046 116.476 59.6062C116.772 59.2048 117.22 59.0042 117.82 59.0042C118.157 59.0042 118.449 59.0818 118.695 59.2371C118.944 59.3894 119.136 59.6077 119.271 59.8918H119.279C119.279 59.8333 119.282 59.7424 119.288 59.6194C119.294 59.4934 119.301 59.3748 119.31 59.2634C119.319 59.1521 119.326 59.0906 119.332 59.0789H120.084C120.066 59.2371 120.057 59.5652 120.057 60.0632V63.6975C120.057 64.3655 119.892 64.8665 119.561 65.2004C119.23 65.5344 118.732 65.7014 118.067 65.7014ZM119.271 61.4563C119.271 60.8792 119.152 60.425 118.915 60.094C118.68 59.76 118.38 59.593 118.014 59.593C117.609 59.593 117.315 59.7395 117.13 60.0325C116.946 60.3254 116.854 60.8 116.854 61.4563C116.854 62.1067 116.94 62.574 117.113 62.8582C117.286 63.1423 117.582 63.2844 118.001 63.2844C118.376 63.2844 118.68 63.1218 118.915 62.7966C119.152 62.4685 119.271 62.0217 119.271 61.4563Z" fill="white"/>
    <circle cx="63.4854" cy="51.3337" r="14.5" fill="white"/>
    <path d="M59.0387 56.8337C58.6976 56.8337 58.4368 56.7461 58.2562 56.5709C58.0756 56.3958 57.9854 56.1514 57.9854 55.8379V47.8296C57.9854 47.5161 58.0807 47.2717 58.2713 47.0965C58.4719 46.9213 58.7428 46.8337 59.0838 46.8337C59.3848 46.8337 59.6206 46.8891 59.7911 46.9997C59.9717 47.1011 60.1372 47.281 60.2877 47.5391L63.7637 53.3759H63.2521L66.7282 47.5391C66.8786 47.281 67.0392 47.1011 67.2097 46.9997C67.3903 46.8891 67.626 46.8337 67.917 46.8337C68.258 46.8337 68.5189 46.9213 68.6994 47.0965C68.89 47.2717 68.9854 47.5161 68.9854 47.8296V55.8379C68.9854 56.1514 68.8951 56.3958 68.7145 56.5709C68.5339 56.7461 68.2731 56.8337 67.932 56.8337C67.5909 56.8337 67.3251 56.7461 67.1345 56.5709C66.9539 56.3958 66.8636 56.1514 66.8636 55.8379V50.2362H67.1947L64.3957 54.842C64.2754 55.0172 64.145 55.1509 64.0045 55.2431C63.8741 55.3261 63.6985 55.3676 63.4778 55.3676C63.2571 55.3676 63.0766 55.3215 62.9361 55.2293C62.7957 55.1371 62.6703 55.008 62.5599 54.842L59.7309 50.2224H60.0921V55.8379C60.0921 56.1514 60.0018 56.3958 59.8212 56.5709C59.6507 56.7461 59.3898 56.8337 59.0387 56.8337Z" fill="#BD931B"/>
    </g>
    <path d="M107 248.375C101.321 241.684 97.5748 233.513 91.8847 226.895C90.9202 225.772 88.6927 221.42 87.1541 221.036M87.1541 221.036C85.1562 220.538 82.6062 225.386 81.9792 226.501C78.8181 232.12 73.3962 241.969 70.629 248.443M87.1541 221.036C91.5236 244.518 77.9991 279.781 56.3503 282.242M56.3503 282.242C50.6188 282.893 44.3178 281.246 37.6286 276.471C24.9814 267.444 38.5632 251.761 50.4016 259.771C56.9373 264.194 57.5255 274.17 56.3503 282.242ZM56.3503 282.242C56.0128 284.56 55.5298 286.722 55.0004 288.549C48.4377 311.21 24.0878 329.64 0.999989 332" stroke="white" stroke-width="2" stroke-miterlimit="1.5" stroke-linecap="round" stroke-linejoin="round"/>
</g>

</svg>
