<svg width="34" height="34" viewBox="0 0 34 34" fill="none" xmlns="http://www.w3.org/2000/svg">
<path d="M28.6353 32.3517L28.584 32.3375L28.5382 32.3646C26.8673 33.3542 24.9656 33.875 23.0098 33.875C18.9081 33.875 15.2396 31.5608 13.3968 28.0753C21.3942 27.8586 27.8586 21.3942 28.0753 13.3968C31.5608 15.2396 33.875 18.9081 33.875 23.0098C33.875 24.9656 33.3542 26.8673 32.3646 28.5382L32.3375 28.584L32.3517 28.6353L33.7728 33.7728L28.6353 32.3517Z" fill="#FCC1C5" stroke="black" stroke-width="0.25"/>
<mask id="path-2-inside-1_1210_1197" fill="white">
<path fill-rule="evenodd" clip-rule="evenodd" d="M12.9824 0C20.1411 0 25.9648 5.82378 25.9648 12.9824C25.9648 20.1411 20.1411 25.9648 12.9824 25.9648C10.6494 25.9648 8.37782 25.3438 6.38356 24.1646L0.0477295 25.9169L1.80023 19.5813C0.621002 17.587 0 15.3155 0 12.9824C0 5.82378 5.82378 0 12.9824 0Z"/>
</mask>
<path fill-rule="evenodd" clip-rule="evenodd" d="M12.9824 0C20.1411 0 25.9648 5.82378 25.9648 12.9824C25.9648 20.1411 20.1411 25.9648 12.9824 25.9648C10.6494 25.9648 8.37782 25.3438 6.38356 24.1646L0.0477295 25.9169L1.80023 19.5813C0.621002 17.587 0 15.3155 0 12.9824C0 5.82378 5.82378 0 12.9824 0Z" fill="#FDA0A7"/>
<path d="M6.38356 24.1646L6.51081 23.9494L6.41934 23.8953L6.31692 23.9237L6.38356 24.1646ZM0.0477295 25.9169L-0.193222 25.8502L-0.310838 26.2754L0.114368 26.1578L0.0477295 25.9169ZM1.80023 19.5813L2.04118 19.6479L2.06952 19.5455L2.01543 19.454L1.80023 19.5813ZM26.2148 12.9824C26.2148 5.68571 20.2791 -0.25 12.9824 -0.25V0.25C20.003 0.25 25.7148 5.96185 25.7148 12.9824H26.2148ZM12.9824 26.2148C20.2791 26.2148 26.2148 20.2791 26.2148 12.9824H25.7148C25.7148 20.003 20.003 25.7148 12.9824 25.7148V26.2148ZM6.25631 24.3798C8.28927 25.5819 10.6048 26.2148 12.9824 26.2148V25.7148C10.694 25.7148 8.46638 25.1058 6.51081 23.9494L6.25631 24.3798ZM0.114368 26.1578L6.4502 24.4056L6.31692 23.9237L-0.0189092 25.6759L0.114368 26.1578ZM1.55928 19.5146L-0.193222 25.8502L0.288681 25.9835L2.04118 19.6479L1.55928 19.5146ZM-0.25 12.9824C-0.25 15.36 0.382928 17.6756 1.58504 19.7085L2.01543 19.454C0.859076 17.4985 0.25 15.2709 0.25 12.9824H-0.25ZM12.9824 -0.25C5.68571 -0.25 -0.25 5.68571 -0.25 12.9824H0.25C0.25 5.96185 5.96185 0.25 12.9824 0.25V-0.25Z" fill="black" mask="url(#path-2-inside-1_1210_1197)"/>
<circle cx="7.5" cy="13.5" r="1.625" fill="white" stroke="black" stroke-width="0.25"/>
<circle cx="12.5" cy="13.5" r="1.625" fill="white" stroke="black" stroke-width="0.25"/>
<circle cx="17.5" cy="13.5" r="1.625" fill="white" stroke="black" stroke-width="0.25"/>
</svg>
