<svg width="40" height="43" viewBox="0 0 40 43" fill="none" xmlns="http://www.w3.org/2000/svg">
<g clip-path="url(#clip0_3659_19170)">
<path d="M20.0005 42.4165C28.27 42.4165 34.9737 40.9154 34.9737 39.0637C34.9737 37.212 28.27 35.7109 20.0005 35.7109C11.7311 35.7109 5.02734 37.212 5.02734 39.0637C5.02734 40.9154 11.7311 42.4165 20.0005 42.4165Z" fill="#8DC3FF"/>
<path d="M34.9735 39.0637C34.9735 37.212 28.2698 35.7109 20.0003 35.7109C18.6246 35.7109 17.2928 35.7527 16.0273 35.8305L18.8301 40.1241C18.9083 40.2439 18.9996 40.3465 19.0997 40.4329L20.9973 42.4088C28.8018 42.2939 34.9735 40.8404 34.9735 39.0637Z" fill="url(#paint0_linear_3659_19170)"/>
<path d="M36.4102 17.8546C36.4102 8.41664 29.0628 0.765625 19.9992 0.765625C10.975 0.765625 3.67924 8.28286 3.58873 17.6793C3.52042 24.7761 7.60724 30.8866 13.4708 33.5367C14.4519 33.9802 15.2912 34.7061 15.8926 35.6273L18.8289 40.1254C19.3904 40.9855 20.6077 40.9855 21.1692 40.1254L24.1054 35.6273C24.7049 34.709 25.5398 33.9823 26.5182 33.5409C32.3383 30.9147 36.4102 24.8803 36.4102 17.8546Z" fill="url(#paint1_linear_3659_19170)"/>
<path d="M19.9996 39.919C19.9045 39.919 19.6661 39.8924 19.5057 39.6468L16.5695 35.1485C15.879 34.0907 14.9202 33.2632 13.7969 32.7556C8.02971 30.1489 4.34399 24.2345 4.40705 17.6878C4.44862 13.3694 6.08673 9.3266 9.01959 6.30404C11.9521 3.2818 15.852 1.61719 19.9996 1.61719H19.9997C28.5979 1.61719 35.593 8.90134 35.593 17.8547C35.593 24.3326 31.9035 30.1831 26.1936 32.7595C25.0768 33.2635 24.121 34.0896 23.4297 35.1487L20.4935 39.6469C20.3331 39.8924 20.0947 39.919 19.9996 39.919Z" fill="url(#paint2_linear_3659_19170)"/>
<path d="M19.9995 28.5934C25.6968 28.5934 30.3154 23.784 30.3154 17.8514C30.3154 11.9187 25.6968 7.10938 19.9995 7.10938C14.3022 7.10938 9.68359 11.9187 9.68359 17.8514C9.68359 23.784 14.3022 28.5934 19.9995 28.5934Z" fill="#553BF9"/>
<path opacity="0.5" d="M35.8973 22.1132L26.0964 11.9074C24.5717 10.2144 22.4045 9.15625 19.9996 9.15625C15.3841 9.15625 11.6426 13.0524 11.6426 17.8585C11.6426 20.3626 12.6587 22.6194 14.2846 24.2071L24.6137 34.9628C25.1445 34.3584 25.7919 33.8727 26.5188 33.5448C31.1219 31.4676 34.6309 27.2584 35.8973 22.1132Z" fill="url(#paint3_linear_3659_19170)"/>
<path d="M19.9996 26.5607C24.6151 26.5607 28.3566 22.6645 28.3566 17.8585C28.3566 13.0524 24.6151 9.15625 19.9996 9.15625C15.3841 9.15625 11.6426 13.0524 11.6426 17.8585C11.6426 22.6645 15.3841 26.5607 19.9996 26.5607Z" fill="url(#paint4_linear_3659_19170)"/>
</g>
<defs>
<linearGradient id="paint0_linear_3659_19170" x1="27.7752" y1="40.6152" x2="22.5723" y2="34.2403" gradientUnits="userSpaceOnUse">
<stop offset="0.0694804" stop-color="#8DC3FF"/>
<stop offset="1" stop-color="#1D80EF"/>
</linearGradient>
<linearGradient id="paint1_linear_3659_19170" x1="10.0942" y1="7.54006" x2="44.1638" y2="40.2583" gradientUnits="userSpaceOnUse">
<stop stop-color="#D3E2FF"/>
<stop offset="1" stop-color="white"/>
</linearGradient>
<linearGradient id="paint2_linear_3659_19170" x1="24.5" y1="26.2776" x2="4.04538" y2="3.03366" gradientUnits="userSpaceOnUse">
<stop stop-color="#DEE5FF" stop-opacity="0"/>
<stop offset="1" stop-color="#A0C6FF"/>
</linearGradient>
<linearGradient id="paint3_linear_3659_19170" x1="30.7318" y1="29.034" x2="21.244" y2="19.9225" gradientUnits="userSpaceOnUse">
<stop stop-color="#1C85FB" stop-opacity="0"/>
<stop offset="1" stop-color="#3F99FF"/>
</linearGradient>
<linearGradient id="paint4_linear_3659_19170" x1="17.9538" y1="14.6097" x2="23.1761" y2="22.2579" gradientUnits="userSpaceOnUse">
<stop stop-color="#F9F7FC"/>
<stop offset="1" stop-color="#CDE1FF"/>
</linearGradient>
<clipPath id="clip0_3659_19170">
<rect width="40" height="41.6522" fill="white" transform="translate(0 0.765625)"/>
</clipPath>
</defs>
</svg>
