<svg width="40" height="43" viewBox="0 0 40 43" fill="none" xmlns="http://www.w3.org/2000/svg">
<g clip-path="url(#clip0_3659_19203)">
<path d="M7.57812 10.2422L1.17188 15.1966L7.88289 24.0314L7.57812 10.2422Z" fill="#81ABE2"/>
<path d="M32.422 10.2422L32.1172 24.0314L38.8282 15.1966L32.422 10.2422Z" fill="#81ABE2"/>
<path d="M32.8906 1.9859V31.9641C32.8906 32.6475 32.3751 33.1844 31.7188 33.1844H20V0.765625H31.7188C32.3751 0.765625 32.8906 1.30247 32.8906 1.9859Z" fill="#B9D7FF"/>
<path d="M32.8906 1.9859V31.9641C32.8906 32.6475 32.3751 33.1844 31.7188 33.1844H8.28125C7.62492 33.1844 7.10938 32.6475 7.10938 31.9641V1.9859C7.10938 1.30247 7.62492 0.765625 8.28125 0.765625H31.7188C32.3751 0.765625 32.8906 1.30247 32.8906 1.9859Z" fill="#DEE9FF"/>
<path d="M32.8906 1.9859V31.9641C32.8906 32.6475 32.3751 33.1844 31.7188 33.1844H8.28125C7.62492 33.1844 7.10938 32.6475 7.10938 31.9641V1.9859C7.10938 1.30247 7.62492 0.765625 8.28125 0.765625H31.7188C32.3751 0.765625 32.8906 1.30247 32.8906 1.9859Z" fill="url(#paint0_linear_3659_19203)"/>
<path d="M28.2031 9.39215C28.2031 10.0756 27.6876 10.6124 27.0312 10.6124H12.9688C12.3124 10.6124 11.7969 10.0756 11.7969 9.39215C11.7969 8.70872 12.3124 8.17188 12.9688 8.17188H27.0312C27.6876 8.17188 28.2031 8.70872 28.2031 9.39215Z" fill="#553BF9"/>
<path d="M28.2031 14.275C28.2031 14.9584 27.6876 15.4952 27.0312 15.4952H12.9688C12.3124 15.4952 11.7969 14.9584 11.7969 14.275C11.7969 13.5915 12.3124 13.0547 12.9688 13.0547H27.0312C27.6876 13.0547 28.2031 13.5915 28.2031 14.275Z" fill="#553BF9"/>
<path d="M21.1719 19.1578C21.1719 19.8412 20.6563 20.3781 20 20.3781H12.9688C12.3124 20.3781 11.7969 19.8412 11.7969 19.1578C11.7969 18.4743 12.3124 17.9375 12.9688 17.9375H20C20.6563 17.9375 21.1719 18.4743 21.1719 19.1578Z" fill="#553BF9"/>
<path d="M20 20.3781V17.9375C20.6563 17.9375 21.1719 18.4743 21.1719 19.1578C21.1719 19.8412 20.6563 20.3781 20 20.3781Z" fill="#0A6DDD"/>
<path d="M27.0312 15.4952H20V13.0547H27.0312C27.6876 13.0547 28.2031 13.5915 28.2031 14.275C28.2031 14.9584 27.6876 15.4952 27.0312 15.4952Z" fill="#0A6DDD"/>
<path d="M27.0312 10.6124H20V8.17188H27.0312C27.6876 8.17188 28.2031 8.70872 28.2031 9.39215C28.2031 10.0756 27.6876 10.6124 27.0312 10.6124Z" fill="#0A6DDD"/>
<path d="M39.5781 15.781C39.5547 15.781 38.8281 15.1953 38.8281 15.1953L36.8827 16.7085L20.7031 29.2774C20.4923 29.4481 20.2344 29.5459 20 29.5459C19.7656 29.5459 19.5077 29.4482 19.2969 29.2774L3.11727 16.7085L1.17188 15.1953C1.17188 15.1953 0.445312 15.781 0.421875 15.781C0.164063 16.0008 0 16.3423 0 16.7085V38.7548C0 40.7806 1.57023 42.4157 3.51562 42.4157H36.4844C38.4298 42.4157 40 40.7806 40 38.7548V16.7085C40 16.3423 39.8359 16.0008 39.5781 15.781Z" fill="url(#paint1_linear_3659_19203)"/>
<path opacity="0.5" d="M40 16.7085V38.7548C40 40.7806 38.4298 42.4157 36.4844 42.4157H20V29.5458C20.2343 29.5458 20.4923 29.4481 20.7031 29.2773L36.8827 16.7085L38.8281 15.1953C38.8281 15.1953 39.5547 15.781 39.5781 15.781C39.8359 16.0008 40 16.3423 40 16.7085Z" fill="url(#paint2_linear_3659_19203)"/>
</g>
<defs>
<linearGradient id="paint0_linear_3659_19203" x1="20" y1="12.7406" x2="20" y2="30.4428" gradientUnits="userSpaceOnUse">
<stop stop-color="#DEE9FF" stop-opacity="0"/>
<stop offset="1" stop-color="#8E9EBF"/>
</linearGradient>
<linearGradient id="paint1_linear_3659_19203" x1="7.92916" y1="19.8048" x2="28.0915" y2="54.4843" gradientUnits="userSpaceOnUse">
<stop stop-color="#D3E2FF"/>
<stop offset="1" stop-color="white"/>
</linearGradient>
<linearGradient id="paint2_linear_3659_19203" x1="40.5" y1="31.482" x2="6.79986" y2="39.2701" gradientUnits="userSpaceOnUse">
<stop stop-color="#1C85FB" stop-opacity="0"/>
<stop offset="1" stop-color="#3F99FF"/>
</linearGradient>
<clipPath id="clip0_3659_19203">
<rect width="40" height="41.6522" fill="white" transform="translate(0 0.765625)"/>
</clipPath>
</defs>
</svg>
