<svg width="40" height="43" viewBox="0 0 40 43" fill="none" xmlns="http://www.w3.org/2000/svg">
<g clip-path="url(#clip0_3659_19186)">
<path d="M31.7188 3.28906H27.0312H22.3438C17.821 3.28906 14.0625 7.12147 14.0625 11.831C14.0625 16.127 17.202 19.6925 21.1719 20.286V24.0338C21.1719 24.5271 21.4568 24.9728 21.8952 25.1611C22.3274 25.3489 22.8345 25.2482 23.1723 24.8965L27.0312 20.8782L27.5165 20.373H31.7188C36.2415 20.373 40 16.5406 40 11.831C40 7.12147 36.2415 3.28906 31.7188 3.28906Z" fill="#DEE9FF"/>
<path d="M31.7188 20.373C36.2415 20.373 40 16.5406 40 11.831C40 7.12147 36.2415 3.28906 31.7188 3.28906H27.0312V20.8782L27.5165 20.373H31.7188Z" fill="#B9D7FF"/>
<path d="M29.8438 31.3594V36.2405C29.8438 38.3638 28.1789 39.9013 26.3445 39.9013C19.5938 39.9013 13.0078 36.5781 8.10938 31.4977C3.21094 26.4172 0 19.5796 0 12.55C0 10.5308 1.57734 8.90625 3.51562 8.90625H8.20312C8.70781 8.90625 9.15547 9.24223 9.31406 9.74011L11.6578 17.0447C11.7727 17.4026 11.7219 17.7948 11.5219 18.108L9.53438 21.2132C10.2875 22.8581 11.6203 24.656 13.1594 26.2391C14.6992 27.8214 16.4453 29.1889 18.025 29.9731L21.007 27.9035C21.3094 27.6961 21.6844 27.6416 22.0281 27.762L29.0594 30.2025C29.5375 30.3677 29.8438 30.8338 29.8438 31.3594Z" fill="url(#paint0_linear_3659_19186)"/>
<path opacity="0.5" d="M29.8438 31.3547V36.2358C29.8438 38.3591 28.1789 39.8966 26.3445 39.8966C19.5938 39.8966 13.0078 36.5734 8.10938 31.493L13.1594 26.2344C14.6992 27.8167 16.4453 29.1842 18.025 29.9684L21.007 27.8988C21.3094 27.6914 21.6844 27.6369 22.0281 27.7573L29.0594 30.1978C29.5375 30.363 29.8438 30.8291 29.8438 31.3547Z" fill="url(#paint1_linear_3659_19186)"/>
<path d="M22.3438 13.0499C22.991 13.0499 23.5156 12.5036 23.5156 11.8297C23.5156 11.1557 22.991 10.6094 22.3438 10.6094C21.6965 10.6094 21.1719 11.1557 21.1719 11.8297C21.1719 12.5036 21.6965 13.0499 22.3438 13.0499Z" fill="#553BF9"/>
<path d="M27.0312 13.0499C27.6785 13.0499 28.2031 12.5036 28.2031 11.8297C28.2031 11.1557 27.6785 10.6094 27.0312 10.6094C26.384 10.6094 25.8594 11.1557 25.8594 11.8297C25.8594 12.5036 26.384 13.0499 27.0312 13.0499Z" fill="#553BF9"/>
<path d="M28.2031 11.8297C28.2031 11.1557 27.6784 10.6094 27.0312 10.6094V13.0499C27.6784 13.0499 28.2031 12.5036 28.2031 11.8297Z" fill="#0A6DDD"/>
<path d="M31.7187 13.0499C32.366 13.0499 32.8906 12.5036 32.8906 11.8297C32.8906 11.1557 32.366 10.6094 31.7187 10.6094C31.0715 10.6094 30.5469 11.1557 30.5469 11.8297C30.5469 12.5036 31.0715 13.0499 31.7187 13.0499Z" fill="#0A6DDD"/>
</g>
<defs>
<linearGradient id="paint0_linear_3659_19186" x1="5.91589" y1="14.155" x2="32.1463" y2="43.7169" gradientUnits="userSpaceOnUse">
<stop stop-color="#D3E2FF"/>
<stop offset="1" stop-color="white"/>
</linearGradient>
<linearGradient id="paint1_linear_3659_19186" x1="25.215" y1="36.7578" x2="7.86373" y2="12.3004" gradientUnits="userSpaceOnUse">
<stop stop-color="#1C85FB" stop-opacity="0"/>
<stop offset="1" stop-color="#3F99FF"/>
</linearGradient>
<clipPath id="clip0_3659_19186">
<rect width="40" height="41.6522" fill="white" transform="translate(0 0.765625)"/>
</clipPath>
</defs>
</svg>
