<svg width="34" height="34" viewBox="0 0 34 34" fill="none" xmlns="http://www.w3.org/2000/svg">
<path d="M14.033 20.0556L14.0264 20.0491L11.4909 17.5517L6.7791 22.2273L14.033 20.0556ZM14.033 20.0556L14.0404 20.061M14.033 20.0556L14.0404 20.061M14.0404 20.061L16.9055 22.1536L11.8238 27.2443C11.8238 27.2444 11.8237 27.2445 11.8236 27.2445M14.0404 20.061L11.8236 27.2445M11.8236 27.2445C10.4113 28.6494 8.15392 28.6121 6.7791 27.2443C5.39248 25.8648 5.39244 23.607 6.77898 22.2274L11.8236 27.2445ZM25.031 17.9432L22.1076 17.1938C21.7073 16.0311 21.0386 14.9338 20.1021 14.0021C19.1619 13.0667 18.0487 12.3808 16.8285 11.985L16.7559 11.9614L16.7018 12.0153L16.7012 12.0158L13.114 11.8751L13.114 11.8744L13.1011 11.8753L11.4825 11.9791L11.4669 11.9801L11.452 11.985C10.2318 12.3808 9.11861 13.0667 8.1784 14.0021L3.33961 18.816C0.0534645 22.0853 0.0534645 27.3988 3.33961 30.668C6.7184 34.0295 12.0575 33.8574 15.2633 30.668L20.102 25.8664L20.1021 25.8663C21.0518 24.9215 21.726 23.8066 22.1242 22.6257L25.1042 18.1334L25.2014 17.9869L25.031 17.9432Z" fill="#FCC1C5" stroke="black" stroke-width="0.25"/>
<path d="M26.5 27.7425L25.2575 26.5C24.9142 26.1566 24.9142 25.6009 25.2575 25.2575C25.6009 24.9142 26.1566 24.9141 26.5 25.2575L27.7425 26.5C28.0858 26.8434 28.0858 27.3991 27.7425 27.7425C27.399 28.0858 26.8434 28.0858 26.5 27.7425Z" fill="#FCC1C5"/>
<path d="M6.50012 8.74253L5.25754 7.5C4.91415 7.15661 4.91415 6.60085 5.25754 6.25752C5.60092 5.91419 6.15667 5.91413 6.5 6.25752L7.74246 7.5C8.08585 7.84339 8.08585 8.39914 7.74246 8.74247C7.39908 9.0858 6.84344 9.08586 6.50012 8.74253Z" fill="#FCC1C5"/>
<path d="M29.0261 19.5888C29.1351 19.1649 29.5534 18.9138 29.9606 19.0273L31.4347 19.4385C31.8419 19.5498 32.0821 19.9874 31.9742 20.4112C31.8651 20.8351 31.4468 21.0862 31.0396 20.9727L29.5656 20.5615C29.161 20.4488 28.9169 20.0152 29.0261 19.5888Z" fill="#FCC1C5"/>
<path d="M1.02607 13.5888C1.13511 13.1649 1.5534 12.9138 1.9606 13.0273L3.43462 13.4385C3.8403 13.5493 4.08258 13.9869 3.9741 14.4112C3.86506 14.8351 3.44677 15.0862 3.03957 14.9727L1.56555 14.5615C1.16099 14.4488 0.916881 14.0151 1.02607 13.5888Z" fill="#FCC1C5"/>
<path d="M19.4386 31.4345L19.0273 29.9607C18.9138 29.5535 19.1649 29.1353 19.5888 29.0263C20.0127 28.9173 20.4475 29.1569 20.5615 29.5657L20.9727 31.0395C21.0862 31.4467 20.8351 31.8649 20.4112 31.974C19.9849 32.0831 19.5513 31.839 19.4386 31.4345Z" fill="#FCC1C5"/>
<path d="M12.4385 4.4345L12.0273 2.96048C11.9138 2.55322 12.1649 2.13497 12.5888 2.02594C13.0127 1.91797 13.4485 2.15659 13.5615 2.56542L13.9727 4.03945C14.0862 4.44671 13.8351 4.86495 13.4112 4.97399C12.9849 5.08303 12.5513 4.83896 12.4385 4.4345Z" fill="#FCC1C5"/>
<path d="M13.4038 8.16841L13.4039 8.1683L18.3686 3.34274L13.4038 8.16841ZM13.4038 8.16841C12.4253 9.12186 11.7318 10.248 11.3237 11.4409C10.7254 13.1898 10.7255 15.0714 11.3237 16.8203C11.7318 18.0131 12.4253 19.1394 13.4038 20.0928C14.3551 21.0198 15.4967 21.7084 16.7604 22.1189L16.8322 22.1422M13.4038 8.16841L16.8322 22.1422M16.8322 22.1422L16.8862 22.0895M16.8322 22.1422L16.8862 22.0895M16.8862 22.0895L16.9264 22.0504C18.45 20.5657 18.4499 18.1358 16.9264 16.6512C15.5036 15.2647 15.5036 12.9965 16.9264 11.6101L21.891 6.78451L21.8912 6.7844M16.8862 22.0895L21.8912 6.7844M21.8912 6.7844C22.59 6.1034 23.4957 5.74975 24.4825 5.74975H24.5333M21.8912 6.7844L24.5333 5.74975M24.5333 5.74975L24.5469 5.73656M24.5333 5.74975L24.5469 5.73656M24.5469 5.73656C24.5656 5.73526 24.5915 5.73518 24.6203 5.73658C24.6503 5.73804 24.6803 5.74093 24.7046 5.74466C24.7168 5.74652 24.7264 5.74841 24.7332 5.75007C24.7359 5.75073 24.7376 5.75124 24.7386 5.75153L24.7617 5.76279L24.7905 5.76279C25.4773 5.76273 26.3977 6.12564 27.0737 6.7844L27.1609 6.69488L27.0737 6.7844C28.4965 8.17087 28.4965 10.439 27.0737 11.8255L22.1493 16.6118L22.0925 16.667L22.1181 16.7419C22.7025 18.4502 22.9587 20.7728 22.3817 22.4595L22.3001 22.6981L22.5394 22.6186C23.1739 22.408 23.7163 21.998 24.213 21.5338C24.4616 21.3015 24.7008 21.0535 24.9349 20.8082C24.9628 20.779 24.9906 20.7499 25.0183 20.7208C25.2243 20.5048 25.4267 20.2924 25.6314 20.0929L24.5469 5.73656ZM25.6316 20.0928L30.5962 15.2672L30.5963 15.2671C33.968 11.9815 33.9678 6.62827 30.5962 3.34274C27.2265 0.0591334 21.752 0.0457486 18.3687 3.34263L25.6316 20.0928Z" fill="#FDA0A7" stroke="black" stroke-width="0.25"/>
</svg>
