<svg width="34" height="34" viewBox="0 0 34 34" fill="none" xmlns="http://www.w3.org/2000/svg">
<path d="M11.1787 17.07C11.1787 13.9274 13.8023 11.3657 17.0342 11.3657C20.266 11.3657 22.8897 13.9279 22.8897 17.07C22.8897 20.2122 20.266 22.7739 17.0342 22.7739C13.8023 22.7739 11.1787 20.2118 11.1787 17.07Z" fill="#FCC1C5" stroke="black" stroke-width="0.25"/>
<path d="M30.153 13.8147L30.1756 13.9112H30.2747H31.9493C32.9408 13.9112 33.7173 14.5892 33.8502 15.5668L33.8496 15.5793C33.8489 15.5978 33.8485 15.628 33.8484 15.6665C33.8481 15.7446 33.8485 15.8645 33.8493 16.0131C33.8495 16.0492 33.8497 16.0871 33.8499 16.1264C33.8513 16.4117 33.8532 16.7779 33.8527 17.1575C33.8521 17.5895 33.8484 18.0377 33.8375 18.4023C33.8321 18.5847 33.8249 18.745 33.8154 18.8714C33.8057 19.0022 33.7943 19.0847 33.7839 19.1196C33.5703 19.8364 32.8442 20.4365 32.089 20.4365H30.3914H30.2951L30.2705 20.5297C29.9377 21.794 29.4193 23.0151 28.7467 24.1214L28.6956 24.2054L28.7652 24.2748L29.9519 25.4585C29.9519 25.4585 29.952 25.4586 29.952 25.4586C30.6377 26.1444 30.5273 27.3437 29.8784 28.0183C29.5436 28.3663 28.1529 29.7224 27.7906 30.0323L27.7906 30.0323C27.0554 30.6617 25.9202 30.6455 25.2351 29.962L24.0369 28.7663L23.9687 28.6983L23.8855 28.7469C22.7001 29.4396 21.4549 29.9445 20.2248 30.2319L20.1283 30.2544V30.3536V32.0223C20.1283 32.9969 19.3227 33.8057 18.3518 33.8595C17.873 33.886 15.9218 33.8734 15.4351 33.8594C14.4897 33.8321 13.5923 33.0683 13.5923 32.0919V30.4003V30.3039L13.499 30.2794C12.2304 29.947 11.0055 29.4294 9.89715 28.7576L9.81339 28.7069L9.74407 28.7761L8.55563 29.962C8.55553 29.962 8.55544 29.9621 8.55534 29.9622C7.86611 30.6429 6.67177 30.5366 5.99463 29.8888C5.64583 29.5548 4.28672 28.1667 3.97598 27.8052L3.88119 27.8867L3.97597 27.8052C3.34473 27.071 3.36129 25.9352 4.04678 25.2509L5.24328 24.057L5.31174 23.9887L5.2628 23.9052C4.56887 22.7224 4.0639 21.4811 3.77615 20.2548L3.75351 20.1584H3.65445H1.97984C1.00528 20.1584 0.194279 19.3554 0.140451 18.3841C0.114014 17.9061 0.126589 15.9591 0.14059 15.4738C0.16788 14.5279 0.933903 13.6331 1.9102 13.6331H3.60775H3.7041L3.72863 13.5399C4.06144 12.2756 4.57983 11.0541 5.25243 9.94869L5.30354 9.86469L5.23394 9.79523L4.04728 8.61112C3.36194 7.92579 3.47224 6.72635 4.12076 6.05172L4.12082 6.05166C4.4551 5.70342 5.84624 4.3472 6.20856 4.0373L6.2086 4.03727C6.94329 3.40833 8.07933 3.4249 8.76409 4.10807C8.7641 4.10807 8.7641 4.10807 8.7641 4.10808L9.96231 5.30374L10.0305 5.3718L10.1137 5.32316C11.299 4.63007 12.5442 4.1255 13.7743 3.83815L13.8709 3.81559V3.71642V1.97812C13.8709 1.00353 14.6765 0.194703 15.6474 0.140854C16.1263 0.114415 18.0775 0.125726 18.5637 0.140985L18.5676 0.0160484L18.5637 0.140985C19.5543 0.17198 20.3372 0.981598 20.3372 1.97812V3.66972V3.76618L20.4305 3.79063C21.6987 4.12305 22.9236 4.6402 24.0324 5.31238L24.1161 5.36316L24.1855 5.29397L25.3742 4.10783C26.0613 3.42495 27.259 3.5343 27.9348 4.18161L27.9349 4.18163C28.2836 4.51556 29.6424 5.90332 29.9531 6.26483L30.0479 6.18334L29.9531 6.26483C30.5844 6.99899 30.5674 8.13477 29.8819 8.8191L28.6858 10.0131L28.6174 10.0814L28.6663 10.1648C29.3602 11.3472 29.8652 12.5881 30.153 13.8147ZM33.8531 15.5889L33.975 15.5736L33.9733 15.689C33.9576 15.6892 33.9425 15.688 33.932 15.6852C33.9147 15.6772 33.8891 15.6581 33.8804 15.6487C33.866 15.6315 33.8601 15.6147 33.8589 15.6116C33.8553 15.6017 33.8539 15.5937 33.8537 15.5927L33.8537 15.5926L33.8531 15.5889ZM27.9531 30.2223L27.8719 30.1273L1.9102 13.3831C0.774545 13.3831 -0.0788497 14.4109 -0.109306 15.4666L0.0156423 15.4702L-0.109306 15.4666C-0.123328 15.9527 -0.136229 17.9086 -0.109167 18.3979L0.0156403 18.391L-0.109166 18.3979C-0.0483529 19.4952 0.866216 20.4084 1.97984 20.4084H3.55582C3.84618 21.6004 4.33577 22.8015 4.99846 23.9481L3.87017 25.074L3.87015 25.074C3.08738 25.8554 3.07422 27.1399 3.7864 27.9682C4.10489 28.3387 5.47078 29.7333 5.82177 30.0694L5.82181 30.0694C6.57718 30.7921 7.92764 30.9339 8.73134 30.1398L8.73178 30.1394L9.85159 29.0219C10.9312 29.6655 12.1158 30.1659 13.3423 30.4964V32.0919C13.3423 33.2284 14.3735 34.0789 15.4279 34.1093C15.9153 34.1233 17.8755 34.1362 18.3656 34.1092C19.4617 34.0484 20.3783 33.1367 20.3783 32.0223V30.4523C21.5741 30.1624 22.779 29.6727 23.9282 29.0111L25.0585 30.1389L25.1468 30.0504L25.0585 30.1389C25.8407 30.9194 27.124 30.9321 27.9531 30.2223C27.9531 30.2223 27.9531 30.2223 27.9531 30.2223ZM34.0996 15.5838L34.0996 15.5834L34.0996 15.5838ZM9.23011 17.0696C9.23011 21.2919 12.7332 24.7219 17.034 24.7219C21.3352 24.7219 24.8378 21.2919 24.8378 17.0696C24.8378 12.8474 21.3348 9.41692 17.034 9.41692C12.7332 9.41692 9.23011 12.8474 9.23011 17.0696Z" fill="#FDA0A7" stroke="black" stroke-width="0.25"/>
</svg>
