<svg width="34" height="34" viewBox="0 0 34 34" fill="none" xmlns="http://www.w3.org/2000/svg">
<path d="M32.3028 17.0012L32.32 16.9564L33.8115 13.0661C33.9561 12.6868 33.8433 12.2575 33.5266 12.0008L33.6054 11.9037L33.5266 12.0008L30.2926 9.37869L30.2554 9.34853L30.2479 9.30123L29.5934 5.18536C29.5297 4.78443 29.215 4.4712 28.8133 4.40739L28.8133 4.40739L24.6975 3.75293L24.6501 3.7454L24.6199 3.70813L22 0.471981L21.9998 0.471695C21.7452 0.155361 21.3059 0.0429093 20.9379 0.186772L20.9371 0.187054L17.0444 1.68082L16.9996 1.698L16.9549 1.68084L13.0643 0.18919L13.0642 0.189157C12.6839 0.0430482 12.2586 0.158779 12.0012 0.474375C12.0011 0.4744 12.0011 0.474425 12.0011 0.47445L9.37927 3.7103L9.3491 3.74753L9.30178 3.75506L5.18601 4.4095L32.3028 17.0012ZM32.3028 17.0012L32.32 17.0459M32.3028 17.0012L32.32 17.0459M32.32 17.0459L33.8115 20.9363C33.9561 21.3155 33.8435 21.7427 33.5267 21.9995C33.5267 21.9995 33.5267 21.9995 33.5266 21.9995L30.2926 24.6194L30.2554 24.6496L30.2479 24.6969L29.5934 28.8128C29.5297 29.2141 29.2146 29.5291 28.8133 29.5929L24.6975 30.2473L24.6501 30.2549L24.62 30.2921L22 33.5261L21.9996 33.5266C21.8182 33.753 21.5465 33.875 21.2706 33.875C21.1562 33.875 21.0438 33.8545 20.9346 33.813L17.0444 32.3215L16.9996 32.3044L16.9549 32.3215L13.0664 33.8111L13.0661 33.8112C12.6872 33.9575 12.2583 33.845 12.0015 33.5264L12.0013 33.5261L9.37924 30.2921L9.34908 30.2549L9.30178 30.2473L5.18593 29.5929C4.78499 29.5292 4.47175 29.2144 4.40794 28.8128L4.40794 28.8128L3.75348 24.6969L3.74595 24.6496L3.70869 24.6194L0.472533 21.9994L0.39388 22.0966L0.47253 21.9994C0.157441 21.7444 0.0414439 21.3151 0.187511 20.9368L0.187618 20.9366L1.67927 17.0459L1.69642 17.0012L1.67927 16.9564L0.187704 13.0661C0.18769 13.066 0.187676 13.066 0.187662 13.066C0.0432489 12.687 0.15785 12.2577 0.47253 12.0029L0.472572 12.0029L3.70873 9.38084L3.74596 9.35068M32.32 17.0459L3.74596 9.35068M3.74596 9.35068L3.75348 9.30335M3.74596 9.35068L3.75348 9.30335M3.75348 9.30335L4.40793 5.18758M3.75348 9.30335L4.40793 5.18758M4.40793 5.18758L4.40794 5.18751C4.47169 4.78834 4.78677 4.47326 5.18593 4.40951L4.40793 5.18758Z" fill="#FDA0A7" stroke="black" stroke-width="0.25"/>
<path d="M10.5 11.6891C10.5 13.5154 11.986 15.0014 13.8123 15.0014C15.6386 15.0014 17.1246 13.5154 17.1246 11.6891C17.1246 9.86282 15.6386 8.37683 13.8123 8.37683C11.986 8.37683 10.5 9.86282 10.5 11.6891ZM12.8749 11.6891C12.8749 11.1717 13.2949 10.7517 13.8123 10.7517C14.3297 10.7517 14.7497 11.1717 14.7497 11.6891C14.7497 12.2065 14.3297 12.6265 13.8123 12.6265C13.2949 12.6265 12.8749 12.2065 12.8749 11.6891Z" fill="white" stroke="black" stroke-width="0.25"/>
<path d="M16.875 22.3134C16.875 24.1397 18.361 25.6257 20.1873 25.6257C22.0136 25.6257 23.4996 24.1397 23.4996 22.3134C23.4996 20.4871 22.0136 19.0011 20.1873 19.0011C18.361 19.0011 16.875 20.4871 16.875 22.3134ZM19.2499 22.3134C19.2499 21.7981 19.672 21.376 20.1873 21.376C20.7026 21.376 21.1247 21.7981 21.1247 22.3134C21.1247 22.8287 20.7026 23.2508 20.1873 23.2508C19.672 23.2508 19.2499 22.8287 19.2499 22.3134Z" fill="white" stroke="black" stroke-width="0.25"/>
<path d="M21.3473 8.87323L21.3474 8.87314C21.7296 8.33902 22.4706 8.2154 23.0049 8.59772C23.0049 8.59773 23.0049 8.59774 23.0049 8.59774L22.9322 8.6994L21.3473 8.87323ZM21.3473 8.87323L10.7231 23.7471C10.3408 24.2815 10.4644 25.0224 10.9985 25.4047L21.3473 8.87323Z" fill="white" stroke="black" stroke-width="0.25"/>
</svg>
