<svg width="121" height="114" viewBox="0 0 121 114" fill="none" xmlns="http://www.w3.org/2000/svg">

    <defs>
        <style>
            .three{
                animation: 2s zoomIn infinite linear alternate;
            }
            .one{
                animation: 2s star_scale infinite linear alternate;
            }
            .two{
                animation: 1s star_scale infinite linear alternate;
            }
            @keyframes star_scale{
                0%{
                    transform: scale(0.9);
                }
                100%{
                    transform: scale(1);
                    fill: rgba(255, 255, 255, 0.5);
                }
            }
            @keyframes zoomIn {
                from {
                    opacity: 0;
                    -webkit-transform: scale3d(0.3, 0.3, 0.3);
                    transform: scale3d(0.3, 0.3, 0.3);
                }

                50% {
                    opacity: 1;
                }
            }
        </style>
    </defs>

<path class="one" d="M0.000153097 71.0197L15.5772 76.1837C25.9619 79.9393 33.9865 87.92 37.7628 98.248L42.9552 113.74L48.6195 97.7786C52.3958 87.92 59.9483 79.9393 69.861 76.6532L85.9102 71.0197L73.1653 66.7946C60.8924 63.039 50.9797 53.1805 46.7314 40.5053L42.4831 27.83L37.2907 40.9747C33.0424 52.2416 29.2662 60.2223 12.745 65.3863L0.000153097 71.0197Z" fill="#433E5D"/>
<path class="two" d="M79.86 36.4125L87.3194 38.8854C92.2924 40.6839 96.1352 44.5056 97.9435 49.4514L100.43 56.8701L103.143 49.2266C104.951 44.5056 108.568 40.6839 113.315 39.1102L121 36.4125L114.897 34.3892C109.02 32.5908 104.273 27.8698 102.238 21.8L100.204 15.7301L97.7175 22.0248C95.6831 27.4202 93.8747 31.2419 85.9632 33.7148L79.86 36.4125Z" fill="#433E5D"/>
<g class="three">
    <path d="M53.2394 13.3826L58.0661 14.9827C61.2839 16.1464 63.7704 18.6193 64.9405 21.8195L66.5494 26.6199L68.3045 21.6741C69.4746 18.6193 71.8149 16.1464 74.8864 15.1282L79.8594 13.3826L75.9103 12.0734C72.1074 10.9097 69.0359 7.85496 67.7195 3.92742L66.4031 -0.000127953L64.7942 4.07288C63.4778 7.56403 62.3077 10.0369 57.1885 11.637L53.2394 13.3826Z" fill="#433E5D"/>
</g>
</svg>
