<svg width="47" height="47" viewBox="0 0 47 47" fill="none" xmlns="http://www.w3.org/2000/svg">
<path d="M26.3125 46H20.6875C19.375 46 17.875 44.875 17.875 42.625V38.6875C17.875 36.8125 16.9375 35.125 15.4375 33.8125C12.0625 31.1875 10.375 27.4375 10.375 23.3125C10.5625 16.1875 16.375 10.5625 23.3125 10.375C26.875 10.375 30.25 11.6875 32.6875 14.125C35.125 16.5625 36.625 19.9375 36.625 23.5C36.625 27.4375 34.9375 31.1875 31.75 33.625C30.0625 34.9375 29.125 37 29.125 38.875V43.1875C29.125 44.6875 27.8125 46 26.3125 46ZM23.5 12.25C17.5 12.25 12.4375 17.3125 12.25 23.3125C12.25 26.875 13.75 30.25 16.5625 32.3125C18.625 34 19.75 36.25 19.75 38.6875V42.625C19.75 43 19.75 44.125 20.6875 44.125H26.3125C26.875 44.125 27.25 43.75 27.25 43.1875V38.875C27.25 36.4375 28.5625 33.8125 30.625 32.125C33.25 30.0625 34.75 26.875 34.75 23.5C34.75 20.5 33.625 17.6875 31.375 15.4375C29.3125 13.375 26.5 12.25 23.5 12.25Z" fill="#333333" stroke="#333333"/>
<path d="M28.1875 40.375H18.8125C18.25 40.375 17.875 40 17.875 39.4375C17.875 38.875 18.25 38.5 18.8125 38.5H28.1875C28.75 38.5 29.125 38.875 29.125 39.4375C29.125 40 28.75 40.375 28.1875 40.375Z" fill="#333333" stroke="#333333"/>
<path d="M23.5 6.625C22.9375 6.625 22.5625 6.25 22.5625 5.6875V1.9375C22.5625 1.375 22.9375 1 23.5 1C24.0625 1 24.4375 1.375 24.4375 1.9375V5.6875C24.4375 6.25 24.0625 6.625 23.5 6.625Z" fill="#333333" stroke="#333333"/>
<path d="M36.0625 11.875C35.875 11.875 35.5 11.875 35.3125 11.6875C34.9375 11.3125 34.9375 10.75 35.3125 10.375L37.9375 7.75C38.3125 7.375 38.875 7.375 39.25 7.75C39.625 8.125 39.625 8.6875 39.25 9.0625L36.625 11.6875C36.625 11.6875 36.25 11.875 36.0625 11.875Z" fill="#333333" stroke="#333333"/>
<path d="M45.0625 24.4375H41.3125C40.75 24.4375 40.375 24.0625 40.375 23.5C40.375 22.9375 40.75 22.5625 41.3125 22.5625H45.0625C45.625 22.5625 46 22.9375 46 23.5C46 24.0625 45.625 24.4375 45.0625 24.4375Z" fill="#333333" stroke="#333333"/>
<path d="M38.6875 39.625C38.5 39.625 38.125 39.625 37.9375 39.4375L35.3125 36.8125C34.9375 36.4375 34.9375 35.875 35.3125 35.5C35.6875 35.125 36.25 35.125 36.625 35.5L39.25 38.125C39.625 38.5 39.625 39.0625 39.25 39.4375C39.25 39.625 39.0625 39.625 38.6875 39.625Z" fill="#333333" stroke="#333333"/>
<path d="M8.3125 39.625C8.125 39.625 7.75 39.625 7.5625 39.4375C7.1875 39.0625 7.1875 38.5 7.5625 38.125L10.1875 35.5C10.5625 35.125 11.125 35.125 11.5 35.5C11.875 35.875 11.875 36.4375 11.5 36.8125L8.875 39.4375C8.6875 39.625 8.5 39.625 8.3125 39.625Z" fill="#333333" stroke="#333333"/>
<path d="M5.6875 24.4375H1.9375C1.375 24.4375 1 24.0625 1 23.5C1 22.9375 1.375 22.5625 1.9375 22.5625H5.6875C6.25 22.5625 6.625 22.9375 6.625 23.5C6.625 24.0625 6.25 24.4375 5.6875 24.4375Z" fill="#333333" stroke="#333333"/>
<path d="M10.9375 11.875C10.75 11.875 10.375 11.875 10.1875 11.6875L7.5625 8.875C7.1875 8.5 7.1875 7.9375 7.5625 7.5625C7.9375 7.1875 8.5 7.1875 8.875 7.5625L11.5 10.1875C11.875 10.5625 11.875 11.125 11.5 11.5C11.3125 11.6875 11.125 11.875 10.9375 11.875Z" fill="#333333" stroke="#333333"/>
<path d="M31 24.4375C30.4375 24.4375 30.0625 24.0625 30.0625 23.5C30.0625 19.9375 27.0625 16.9375 23.5 16.9375C22.9375 16.9375 22.5625 16.5625 22.5625 16C22.5625 15.4375 22.9375 15.0625 23.5 15.0625C28.1875 15.0625 31.9375 18.8125 31.9375 23.5C31.9375 24.0625 31.5625 24.4375 31 24.4375Z" fill="#333333" stroke="#333333"/>
</svg>
