<svg width="45" height="45" viewBox="0 0 45 45" fill="none" xmlns="http://www.w3.org/2000/svg">
<path d="M22.5 45C10.0901 45 0 34.9099 0 22.5C0 10.0901 10.0901 0 22.5 0C34.9099 0 45 10.0901 45 22.5C45 34.9099 34.9099 45 22.5 45ZM22.5 3.07453C11.795 3.07453 3.07453 11.795 3.07453 22.5C3.07453 33.205 11.795 41.9255 22.5 41.9255C33.205 41.9255 41.9255 33.205 41.9255 22.5C41.9255 11.795 33.205 3.07453 22.5 3.07453Z" fill="#333333"/>
<path d="M22.5002 34.1014C19.3977 34.1014 16.4909 32.8996 14.2968 30.7055C14.0033 30.412 13.8496 30.0346 13.8496 29.6154C13.8496 29.2101 14.0033 28.8188 14.2968 28.5253C14.5903 28.2319 14.9676 28.0781 15.3869 28.0781C15.7922 28.0781 16.1835 28.2319 16.4769 28.5253C18.0841 30.1325 20.2223 31.0129 22.5002 31.0129C24.7782 31.0129 26.9164 30.1325 28.5235 28.5253C28.817 28.2319 29.1943 28.0781 29.6136 28.0781C30.0328 28.0781 30.4102 28.2319 30.7036 28.5253C30.9971 28.8188 31.1509 29.1961 31.1509 29.6154C31.1509 30.0207 30.9971 30.412 30.7036 30.7055C28.5095 32.8856 25.6027 34.1014 22.5002 34.1014Z" fill="#333333"/>
<path d="M13.5563 20.2611C12.9694 20.2611 12.3964 20.0235 11.9771 19.6043C11.5579 19.185 11.3203 18.612 11.3203 18.0251C11.3203 17.4381 11.5579 16.8651 11.9771 16.4459C12.3964 16.0266 12.9694 15.7891 13.5563 15.7891C14.1433 15.7891 14.7163 16.0266 15.1355 16.4459C15.5548 16.8651 15.7924 17.4381 15.7924 18.0251C15.7924 18.612 15.5548 19.185 15.1355 19.6043C14.7163 20.0235 14.1433 20.2611 13.5563 20.2611Z" fill="#333333"/>
<path d="M31.444 20.2611C30.8571 20.2611 30.2841 20.0235 29.8648 19.6043C29.4456 19.185 29.208 18.612 29.208 18.0251C29.208 17.4381 29.4456 16.8651 29.8648 16.4459C30.2841 16.0266 30.8571 15.7891 31.444 15.7891C32.031 15.7891 32.604 16.0266 33.0232 16.4459C33.4425 16.8651 33.6801 17.4381 33.6801 18.0251C33.6801 18.612 33.4425 19.185 33.0232 19.6043C32.604 20.0235 32.031 20.2611 31.444 20.2611Z" fill="#333333"/>
</svg>
